<svg width="136" height="80" fill="none" xmlns="http://www.w3.org/2000/svg"><circle cx="96" cy="40" r="40" fill="#CF2D1E"/><path d="M103.059 20C110.206 20 116 25.794 116 32.941c0 7.147-5.794 12.941-12.941 12.941a1.177 1.177 0 00-.212 2.334l.212.02H116V60h-12.941c-7.147 0-12.941-5.794-12.941-12.941 0-7.147 5.794-12.941 12.941-12.941a1.176 1.176 0 00.211-2.334l-.211-.02H88.941c-.577 0-1.058.417-1.157.966l-.02.211V60H76V32.941c0-6.973 5.515-12.658 12.42-12.93l.521-.011h14.118z" fill="#fff"/><rect x="16" y="20" width="8" height="40" rx="4" fill="#CF2D1E"/><rect x="40" y="36" width="8" height="40" rx="4" transform="rotate(90 40 36)" fill="#CF2D1E"/></svg>