<svg width="120" height="80" fill="none" xmlns="http://www.w3.org/2000/svg"><path d="M120 0l-8 13.333 8 13.334L112 40l8 13.333-8 13.334L120 80H0l8-13.333-8-13.334L8 40 0 26.667l8-13.334L0 0h120z" fill="#CF2D1E"/><path d="M67.059 20C74.206 20 80 25.794 80 32.94c0 7.148-5.794 12.942-12.941 12.942a1.177 1.177 0 00-.212 2.334l.212.02H80V60H67.059c-7.147 0-12.941-5.794-12.941-12.941 0-7.148 5.794-12.942 12.94-12.942a1.176 1.176 0 00.212-2.334l-.211-.018H52.94c-.577 0-1.058.416-1.157.965l-.02.21V60H40V32.94c0-6.972 5.515-12.657 12.42-12.93l.521-.01H67.06z" fill="#fff"/></svg>