<svg width="212" height="80" fill="none" xmlns="http://www.w3.org/2000/svg"><circle cx="86" cy="50" r="30" fill="#CF2D1E"/><path d="M91.294 35c5.36 0 9.706 4.346 9.706 9.706 0 5.36-4.346 9.706-9.706 9.706a.882.882 0 00-.159 1.75l.16.014H101V65h-9.706c-5.36 0-9.706-4.346-9.706-9.706 0-5.36 4.346-9.706 9.706-9.706a.882.882 0 00.159-1.75l-.159-.014H80.706a.883.883 0 00-.868.723l-.014.159V65H71V44.706c0-5.23 4.136-9.493 9.316-9.698l.39-.008h10.588z" fill="#fff"/><circle cx="20" cy="60" r="20" fill="#CF2D1E"/><path d="M23.53 50a6.47 6.47 0 010 12.941.588.588 0 00-.106 1.167l.105.01H30V70h-6.47a6.47 6.47 0 010-12.941.588.588 0 00.105-1.167l-.106-.01h-7.058a.588.588 0 00-.58.483l-.009.106V70H10V56.47a6.47 6.47 0 016.21-6.465l.26-.005h7.06z" fill="#fff"/><circle cx="172" cy="40" r="40" fill="#CF2D1E"/><path d="M179.059 20C186.206 20 192 25.794 192 32.941c0 7.147-5.794 12.941-12.941 12.941a1.177 1.177 0 00-.212 2.334l.212.02H192V60h-12.941c-7.147 0-12.941-5.794-12.941-12.941 0-7.147 5.794-12.941 12.941-12.941a1.176 1.176 0 00.211-2.334l-.211-.02h-14.118c-.577 0-1.058.417-1.157.966l-.019.211V60H152V32.941c0-6.973 5.515-12.658 12.421-12.93l.52-.011h14.118z" fill="#fff"/></svg>