<svg width="1302" height="1007" viewBox="0 0 1302 1007" fill="none" xmlns="http://www.w3.org/2000/svg">
<path d="M14.8789 130.137L19.582 121.414H27.8672L18.8438 136.234L23.1914 151H15.4531L13.4023 141.785L8.45312 151H0.113281L9.49219 135.523L5.33594 121.414H13.0742L14.8789 130.137ZM31.0936 131.312L36.1522 111.188H54.9373L53.8983 117.805H41.4022L39.1053 126.363C40.3996 125.397 41.8853 124.896 43.5623 124.859C46.0597 124.823 48.0467 125.707 49.5233 127.512C51.0181 129.298 51.8384 131.805 51.9842 135.031C52.1483 139.935 50.9907 143.945 48.5116 147.062C46.0324 150.18 42.8696 151.684 39.0233 151.574C35.9608 151.501 33.4907 150.353 31.6131 148.129C29.7537 145.905 28.8605 143.152 28.9334 139.871H36.3983C36.5077 143.298 37.5558 145.039 39.5428 145.094C41.1652 145.167 42.4139 144.273 43.2889 142.414C44.1274 140.609 44.5376 138.285 44.5194 135.441C44.4829 134.038 44.173 132.917 43.5897 132.078C43.0246 131.24 42.1952 130.82 41.1014 130.82C39.6431 130.784 38.3306 131.495 37.1639 132.953L31.0936 131.312ZM66.9137 151.547C64.8721 151.492 63.1494 150.918 61.7458 149.824C60.3421 148.73 59.3213 147.154 58.6833 145.094C58.0635 143.016 57.7901 140.71 57.863 138.176C57.8994 136.9 57.9906 135.688 58.1364 134.539L59.3122 126.855C60.1872 121.423 61.7731 117.34 64.07 114.605C66.3669 111.853 69.2927 110.522 72.8473 110.613C75.9281 110.723 78.2341 111.944 79.7653 114.277C81.3148 116.611 82.0348 119.837 81.9255 123.957C81.889 125.233 81.7979 126.445 81.652 127.594L80.3942 135.715C79.3187 141.803 77.3864 146.142 74.5973 148.73C72.4463 150.717 69.8851 151.656 66.9137 151.547ZM74.2145 126.445L74.57 123.438L74.6247 121.059C74.5882 119.855 74.3604 118.898 73.9411 118.188C73.5218 117.458 72.9203 117.066 72.1364 117.012C70.7874 116.902 69.6664 117.568 68.7731 119.008C67.8981 120.448 67.251 122.927 66.8317 126.445L65.5192 135.633L65.1637 138.695L65.1091 141.074C65.182 143.717 66.0205 145.085 67.6247 145.176C68.9554 145.285 70.0583 144.638 70.9333 143.234C71.8265 141.831 72.4828 139.297 72.902 135.633L74.2145 126.445Z" fill="#CF2D1E"/>
<path d="M256.029 939.648L260.486 944.762L255.1 949.109L249.221 942.438C248.455 942.529 247.79 942.556 247.225 942.52C244.946 942.501 242.941 941.964 241.209 940.906C239.477 939.831 238.137 938.272 237.19 936.23C236.26 934.189 235.759 931.892 235.686 929.34C235.631 927.809 235.704 926.368 235.904 925.02L236.779 919.195C237.618 913.69 239.468 909.37 242.33 906.234C245.21 903.081 248.874 901.549 253.322 901.641C256.877 901.714 259.657 902.926 261.662 905.277C263.686 907.611 264.77 910.81 264.916 914.875C264.953 916.279 264.88 917.673 264.697 919.059L263.74 925.375C262.701 932.029 260.131 936.786 256.029 939.648ZM256.85 918.949C257.068 917.072 257.178 915.622 257.178 914.602C257.087 910.555 255.601 908.467 252.721 908.34C248.565 908.176 245.921 911.375 244.791 917.938L243.752 925.211C243.533 927.089 243.433 928.538 243.451 929.559C243.451 931.564 243.834 933.104 244.6 934.18C245.365 935.255 246.468 935.82 247.908 935.875C249.932 935.984 251.618 935.237 252.967 933.633C254.316 932.01 255.282 929.376 255.865 925.73L256.85 918.949ZM283.072 942H275.498L280.748 911.758L272.873 914.656L274.076 907.902L288.869 902.133H289.799L283.072 942Z" fill="black"/>
<path d="M243.11 998H220.305L221.207 992.23L233.485 978.832C236.857 975.113 238.662 971.923 238.899 969.262L238.953 967.812C238.953 966.664 238.735 965.743 238.297 965.051C237.86 964.358 237.222 964.003 236.383 963.984C233.904 963.93 232.345 965.962 231.707 970.082L231.625 970.711L224.106 970.738C224.288 968.332 224.962 966.108 226.129 964.066C227.296 962.007 228.836 960.411 230.75 959.281C232.664 958.151 234.779 957.595 237.094 957.613C240.339 957.686 242.827 958.743 244.559 960.785C246.291 962.809 247.011 965.47 246.719 968.77C246.555 970.665 246.008 972.534 245.078 974.375C244.149 976.198 242.8 978.13 241.031 980.172L237.285 984.273L231.188 991.574H244.121L243.11 998ZM259.98 998.547C257.939 998.492 256.216 997.918 254.812 996.824C253.409 995.73 252.388 994.154 251.75 992.094C251.13 990.016 250.857 987.71 250.93 985.176C250.966 983.9 251.057 982.688 251.203 981.539L252.379 973.855C253.254 968.423 254.84 964.34 257.137 961.605C259.434 958.853 262.359 957.522 265.914 957.613C268.995 957.723 271.301 958.944 272.832 961.277C274.382 963.611 275.102 966.837 274.992 970.957C274.956 972.233 274.865 973.445 274.719 974.594L273.461 982.715C272.385 988.803 270.453 993.142 267.664 995.73C265.513 997.717 262.952 998.656 259.98 998.547ZM267.281 973.445L267.637 970.438L267.691 968.059C267.655 966.855 267.427 965.898 267.008 965.188C266.589 964.458 265.987 964.066 265.203 964.012C263.854 963.902 262.733 964.568 261.84 966.008C260.965 967.448 260.318 969.927 259.898 973.445L258.586 982.633L258.23 985.695L258.176 988.074C258.249 990.717 259.087 992.085 260.691 992.176C262.022 992.285 263.125 991.638 264 990.234C264.893 988.831 265.549 986.297 265.969 982.633L267.281 973.445ZM291.207 981.758H287.707L284.89 998H277.043L283.933 958.188H291.781L289.019 974.102H291.426L300.914 958.188H310.812L297.879 977.109L304.578 998H295.609L291.207 981.758Z" fill="#CF2D1E"/>
<path d="M535.029 939.648L539.486 944.762L534.1 949.109L528.221 942.438C527.455 942.529 526.79 942.556 526.225 942.52C523.946 942.501 521.941 941.964 520.209 940.906C518.477 939.831 517.137 938.272 516.19 936.23C515.26 934.189 514.759 931.892 514.686 929.34C514.631 927.809 514.704 926.368 514.904 925.02L515.779 919.195C516.618 913.69 518.468 909.37 521.33 906.234C524.21 903.081 527.874 901.549 532.322 901.641C535.877 901.714 538.657 902.926 540.662 905.277C542.686 907.611 543.77 910.81 543.916 914.875C543.953 916.279 543.88 917.673 543.697 919.059L542.74 925.375C541.701 932.029 539.131 936.786 535.029 939.648ZM535.85 918.949C536.068 917.072 536.178 915.622 536.178 914.602C536.087 910.555 534.601 908.467 531.721 908.34C527.565 908.176 524.921 911.375 523.791 917.938L522.752 925.211C522.533 927.089 522.433 928.538 522.451 929.559C522.451 931.564 522.834 933.104 523.6 934.18C524.365 935.255 525.468 935.82 526.908 935.875C528.932 935.984 530.618 935.237 531.967 933.633C533.316 932.01 534.282 929.376 534.865 925.73L535.85 918.949ZM568.607 942H545.803L546.705 936.23L558.982 922.832C562.355 919.113 564.159 915.923 564.396 913.262L564.451 911.812C564.451 910.664 564.232 909.743 563.795 909.051C563.357 908.358 562.719 908.003 561.881 907.984C559.402 907.93 557.843 909.962 557.205 914.082L557.123 914.711L549.603 914.738C549.786 912.332 550.46 910.108 551.627 908.066C552.794 906.007 554.334 904.411 556.248 903.281C558.162 902.151 560.277 901.595 562.592 901.613C565.837 901.686 568.325 902.743 570.057 904.785C571.788 906.809 572.508 909.47 572.217 912.77C572.053 914.665 571.506 916.534 570.576 918.375C569.646 920.198 568.297 922.13 566.529 924.172L562.783 928.273L556.685 935.574H569.619L568.607 942Z" fill="black"/>
<path d="M503.16 978.312L508.219 958.188H527.004L525.965 964.805H513.469L511.172 973.363C512.466 972.397 513.952 971.896 515.629 971.859C518.126 971.823 520.113 972.707 521.59 974.512C523.085 976.298 523.905 978.805 524.051 982.031C524.215 986.935 523.057 990.945 520.578 994.062C518.099 997.18 514.936 998.684 511.09 998.574C508.028 998.501 505.557 997.353 503.68 995.129C501.82 992.905 500.927 990.152 501 986.871H508.465C508.574 990.298 509.623 992.039 511.61 992.094C513.232 992.167 514.481 991.273 515.356 989.414C516.194 987.609 516.604 985.285 516.586 982.441C516.55 981.038 516.24 979.917 515.656 979.078C515.091 978.24 514.262 977.82 513.168 977.82C511.71 977.784 510.397 978.495 509.231 979.953L503.16 978.312ZM538.98 998.547C536.939 998.492 535.216 997.918 533.812 996.824C532.409 995.73 531.388 994.154 530.75 992.094C530.13 990.016 529.857 987.71 529.93 985.176C529.966 983.9 530.057 982.688 530.203 981.539L531.379 973.855C532.254 968.423 533.84 964.34 536.137 961.605C538.434 958.853 541.359 957.522 544.914 957.613C547.995 957.723 550.301 958.944 551.832 961.277C553.382 963.611 554.102 966.837 553.992 970.957C553.956 972.233 553.865 973.445 553.719 974.594L552.461 982.715C551.385 988.803 549.453 993.142 546.664 995.73C544.513 997.717 541.952 998.656 538.98 998.547ZM546.281 973.445L546.637 970.438L546.691 968.059C546.655 966.855 546.427 965.898 546.008 965.188C545.589 964.458 544.987 964.066 544.203 964.012C542.854 963.902 541.733 964.568 540.84 966.008C539.965 967.448 539.318 969.927 538.898 973.445L537.586 982.633L537.23 985.695L537.176 988.074C537.249 990.717 538.087 992.085 539.691 992.176C541.022 992.285 542.125 991.638 543 990.234C543.893 988.831 544.549 986.297 544.969 982.633L546.281 973.445ZM570.207 981.758H566.707L563.89 998H556.043L562.933 958.188H570.781L568.019 974.102H570.426L579.914 958.188H589.812L576.879 977.109L583.578 998H574.609L570.207 981.758Z" fill="#CF2D1E"/>
<path d="M828.029 939.648L832.486 944.762L827.1 949.109L821.221 942.438C820.455 942.529 819.79 942.556 819.225 942.52C816.946 942.501 814.941 941.964 813.209 940.906C811.477 939.831 810.137 938.272 809.19 936.23C808.26 934.189 807.759 931.892 807.686 929.34C807.631 927.809 807.704 926.368 807.904 925.02L808.779 919.195C809.618 913.69 811.468 909.37 814.33 906.234C817.21 903.081 820.874 901.549 825.322 901.641C828.877 901.714 831.657 902.926 833.662 905.277C835.686 907.611 836.77 910.81 836.916 914.875C836.953 916.279 836.88 917.673 836.697 919.059L835.74 925.375C834.701 932.029 832.131 936.786 828.029 939.648ZM828.85 918.949C829.068 917.072 829.178 915.622 829.178 914.602C829.087 910.555 827.601 908.467 824.721 908.34C820.565 908.176 817.921 911.375 816.791 917.938L815.752 925.211C815.533 927.089 815.433 928.538 815.451 929.559C815.451 931.564 815.834 933.104 816.6 934.18C817.365 935.255 818.468 935.82 819.908 935.875C821.932 935.984 823.618 935.237 824.967 933.633C826.316 932.01 827.282 929.376 827.865 925.73L828.85 918.949ZM849.221 918.566L852.611 918.621C854.288 918.585 855.583 917.865 856.494 916.461C857.424 915.039 857.816 913.307 857.67 911.266C857.469 909.133 856.531 908.039 854.853 907.984C853.796 907.984 852.912 908.385 852.201 909.188C851.49 909.99 851.016 911.083 850.779 912.469L843.232 912.496C843.488 909.27 844.736 906.645 846.978 904.621C849.221 902.579 851.946 901.577 855.154 901.613C858.381 901.686 860.933 902.734 862.81 904.758C864.688 906.763 865.518 909.443 865.299 912.797C865.025 916.534 862.911 919.496 858.955 921.684C860.377 922.522 861.425 923.698 862.1 925.211C862.774 926.724 863.047 928.529 862.92 930.625C862.756 932.922 862.09 934.991 860.924 936.832C859.775 938.655 858.208 940.077 856.221 941.098C854.234 942.118 852.064 942.602 849.713 942.547C846.596 942.474 844.126 941.389 842.303 939.293C840.498 937.178 839.65 934.435 839.76 931.062L847.307 931.09C847.252 932.603 847.507 933.815 848.072 934.727C848.637 935.62 849.439 936.085 850.478 936.121C852.046 936.158 853.322 935.456 854.307 934.016C855.291 932.576 855.719 930.743 855.592 928.52C855.537 927.426 855.227 926.551 854.662 925.895C854.097 925.238 853.295 924.883 852.256 924.828L848.236 924.801L849.221 918.566Z" fill="black"/>
<path d="M801.014 998H778.209L779.112 992.23L791.389 978.832C794.761 975.113 796.566 971.923 796.803 969.262L796.858 967.812C796.858 966.664 796.639 965.743 796.201 965.051C795.764 964.358 795.126 964.003 794.287 963.984C791.808 963.93 790.25 965.962 789.612 970.082L789.53 970.711L782.01 970.738C782.192 968.332 782.867 966.108 784.033 964.066C785.2 962.007 786.74 960.411 788.655 959.281C790.569 958.151 792.683 957.595 794.998 957.613C798.243 957.686 800.731 958.743 802.463 960.785C804.195 962.809 804.915 965.47 804.623 968.77C804.459 970.665 803.912 972.534 802.983 974.375C802.053 976.198 800.704 978.13 798.936 980.172L795.19 984.273L789.092 991.574H802.026L801.014 998ZM817.885 998.547C815.843 998.492 814.121 997.918 812.717 996.824C811.313 995.73 810.292 994.154 809.654 992.094C809.035 990.016 808.761 987.71 808.834 985.176C808.871 983.9 808.962 982.688 809.107 981.539L810.283 973.855C811.158 968.423 812.744 964.34 815.041 961.605C817.338 958.853 820.264 957.522 823.818 957.613C826.899 957.723 829.205 958.944 830.736 961.277C832.286 963.611 833.006 966.837 832.897 970.957C832.86 972.233 832.769 973.445 832.623 974.594L831.365 982.715C830.29 988.803 828.357 993.142 825.568 995.73C823.417 997.717 820.856 998.656 817.885 998.547ZM825.186 973.445L825.541 970.438L825.596 968.059C825.559 966.855 825.331 965.898 824.912 965.188C824.493 964.458 823.891 964.066 823.107 964.012C821.759 963.902 820.637 964.568 819.744 966.008C818.869 967.448 818.222 969.927 817.803 973.445L816.49 982.633L816.135 985.695L816.08 988.074C816.153 990.717 816.992 992.085 818.596 992.176C819.927 992.285 821.029 991.638 821.904 990.234C822.798 988.831 823.454 986.297 823.873 982.633L825.186 973.445ZM846.076 998.547C844.034 998.492 842.312 997.918 840.908 996.824C839.504 995.73 838.484 994.154 837.846 992.094C837.226 990.016 836.952 987.71 837.025 985.176C837.062 983.9 837.153 982.688 837.299 981.539L838.475 973.855C839.35 968.423 840.935 964.34 843.232 961.605C845.529 958.853 848.455 957.522 852.01 957.613C855.09 957.723 857.396 958.944 858.928 961.277C860.477 963.611 861.197 966.837 861.088 970.957C861.051 972.233 860.96 973.445 860.814 974.594L859.557 982.715C858.481 988.803 856.549 993.142 853.76 995.73C851.609 997.717 849.047 998.656 846.076 998.547ZM853.377 973.445L853.732 970.438L853.787 968.059C853.751 966.855 853.523 965.898 853.103 965.188C852.684 964.458 852.083 964.066 851.299 964.012C849.95 963.902 848.829 964.568 847.935 966.008C847.06 967.448 846.413 969.927 845.994 973.445L844.682 982.633L844.326 985.695L844.271 988.074C844.344 990.717 845.183 992.085 846.787 992.176C848.118 992.285 849.221 991.638 850.096 990.234C850.989 988.831 851.645 986.297 852.064 982.633L853.377 973.445ZM877.303 981.758H873.803L870.986 998H863.138L870.029 958.188H877.877L875.115 974.102H877.521L887.01 958.188H896.908L883.974 977.109L890.674 998H881.705L877.303 981.758Z" fill="#CF2D1E"/>
<path d="M1135.03 939.648L1139.49 944.762L1134.1 949.109L1128.22 942.438C1127.46 942.529 1126.79 942.556 1126.22 942.52C1123.95 942.501 1121.94 941.964 1120.21 940.906C1118.48 939.831 1117.14 938.272 1116.19 936.23C1115.26 934.189 1114.76 931.892 1114.69 929.34C1114.63 927.809 1114.7 926.368 1114.9 925.02L1115.78 919.195C1116.62 913.69 1118.47 909.37 1121.33 906.234C1124.21 903.081 1127.87 901.549 1132.32 901.641C1135.88 901.714 1138.66 902.926 1140.66 905.277C1142.69 907.611 1143.77 910.81 1143.92 914.875C1143.95 916.279 1143.88 917.673 1143.7 919.059L1142.74 925.375C1141.7 932.029 1139.13 936.786 1135.03 939.648ZM1135.85 918.949C1136.07 917.072 1136.18 915.622 1136.18 914.602C1136.09 910.555 1134.6 908.467 1131.72 908.34C1127.56 908.176 1124.92 911.375 1123.79 917.938L1122.75 925.211C1122.53 927.089 1122.43 928.538 1122.45 929.559C1122.45 931.564 1122.83 933.104 1123.6 934.18C1124.37 935.255 1125.47 935.82 1126.91 935.875C1128.93 935.984 1130.62 935.237 1131.97 933.633C1133.32 932.01 1134.28 929.376 1134.87 925.73L1135.85 918.949ZM1167.95 926.961H1171.26L1170.14 933.387H1166.86L1165.35 942H1157.78L1159.31 933.387H1146.54L1147.09 928.027L1164.48 902.188H1172.24L1167.95 926.961ZM1154.77 926.961H1160.4L1162.95 913.535L1162.67 913.945L1154.77 926.961Z" fill="black"/>
<path d="M1089.06 978.312L1094.12 958.188H1112.91L1111.87 964.805H1099.37L1097.08 973.363C1098.37 972.397 1099.86 971.896 1101.53 971.859C1104.03 971.823 1106.02 972.707 1107.49 974.512C1108.99 976.298 1109.81 978.805 1109.96 982.031C1110.12 986.935 1108.96 990.945 1106.48 994.062C1104 997.18 1100.84 998.684 1096.99 998.574C1093.93 998.501 1091.46 997.353 1089.58 995.129C1087.72 992.905 1086.83 990.152 1086.9 986.871H1094.37C1094.48 990.298 1095.53 992.039 1097.51 992.094C1099.14 992.167 1100.38 991.273 1101.26 989.414C1102.1 987.609 1102.51 985.285 1102.49 982.441C1102.45 981.038 1102.14 979.917 1101.56 979.078C1101 978.24 1100.17 977.82 1099.07 977.82C1097.61 977.784 1096.3 978.495 1095.13 979.953L1089.06 978.312ZM1124.88 998.547C1122.84 998.492 1121.12 997.918 1119.72 996.824C1118.31 995.73 1117.29 994.154 1116.65 992.094C1116.03 990.016 1115.76 987.71 1115.83 985.176C1115.87 983.9 1115.96 982.688 1116.11 981.539L1117.28 973.855C1118.16 968.423 1119.74 964.34 1122.04 961.605C1124.34 958.853 1127.26 957.522 1130.82 957.613C1133.9 957.723 1136.21 958.944 1137.74 961.277C1139.29 963.611 1140.01 966.837 1139.9 970.957C1139.86 972.233 1139.77 973.445 1139.62 974.594L1138.37 982.715C1137.29 988.803 1135.36 993.142 1132.57 995.73C1130.42 997.717 1127.86 998.656 1124.88 998.547ZM1132.19 973.445L1132.54 970.438L1132.6 968.059C1132.56 966.855 1132.33 965.898 1131.91 965.188C1131.49 964.458 1130.89 964.066 1130.11 964.012C1128.76 963.902 1127.64 964.568 1126.74 966.008C1125.87 967.448 1125.22 969.927 1124.8 973.445L1123.49 982.633L1123.13 985.695L1123.08 988.074C1123.15 990.717 1123.99 992.085 1125.6 992.176C1126.93 992.285 1128.03 991.638 1128.9 990.234C1129.8 988.831 1130.45 986.297 1130.87 982.633L1132.19 973.445ZM1153.08 998.547C1151.03 998.492 1149.31 997.918 1147.91 996.824C1146.5 995.73 1145.48 994.154 1144.85 992.094C1144.23 990.016 1143.95 987.71 1144.03 985.176C1144.06 983.9 1144.15 982.688 1144.3 981.539L1145.47 973.855C1146.35 968.423 1147.94 964.34 1150.23 961.605C1152.53 958.853 1155.45 957.522 1159.01 957.613C1162.09 957.723 1164.4 958.944 1165.93 961.277C1167.48 963.611 1168.2 966.837 1168.09 970.957C1168.05 972.233 1167.96 973.445 1167.81 974.594L1166.56 982.715C1165.48 988.803 1163.55 993.142 1160.76 995.73C1158.61 997.717 1156.05 998.656 1153.08 998.547ZM1160.38 973.445L1160.73 970.438L1160.79 968.059C1160.75 966.855 1160.52 965.898 1160.1 965.188C1159.68 964.458 1159.08 964.066 1158.3 964.012C1156.95 963.902 1155.83 964.568 1154.94 966.008C1154.06 967.448 1153.41 969.927 1152.99 973.445L1151.68 982.633L1151.33 985.695L1151.27 988.074C1151.34 990.717 1152.18 992.085 1153.79 992.176C1155.12 992.285 1156.22 991.638 1157.1 990.234C1157.99 988.831 1158.65 986.297 1159.06 982.633L1160.38 973.445ZM1184.3 981.758H1180.8L1177.99 998H1170.14L1177.03 958.188H1184.88L1182.12 974.102H1184.52L1194.01 958.188H1203.91L1190.97 977.109L1197.67 998H1188.7L1184.3 981.758Z" fill="#CF2D1E"/>
<path d="M14.8789 474.137L19.582 465.414H27.8672L18.8438 480.234L23.1914 495H15.4531L13.4023 485.785L8.45312 495H0.113281L9.49219 479.523L5.33594 465.414H13.0742L14.8789 474.137ZM37.6561 471.566L41.0467 471.621C42.7238 471.585 44.0181 470.865 44.9295 469.461C45.8592 468.039 46.2511 466.307 46.1053 464.266C45.9048 462.133 44.966 461.039 43.2889 460.984C42.2316 460.984 41.3475 461.385 40.6366 462.188C39.9256 462.99 39.4517 464.083 39.2147 465.469L31.6678 465.496C31.923 462.27 33.1717 459.645 35.4139 457.621C37.6561 455.579 40.3814 454.577 43.5897 454.613C46.8162 454.686 49.3683 455.734 51.2459 457.758C53.1235 459.763 53.953 462.443 53.7342 465.797C53.4608 469.534 51.3462 472.496 47.3905 474.684C48.8123 475.522 49.8605 476.698 50.535 478.211C51.2095 479.724 51.4829 481.529 51.3553 483.625C51.1912 485.922 50.5259 487.991 49.3592 489.832C48.2108 491.655 46.6431 493.077 44.6561 494.098C42.6691 495.118 40.4998 495.602 38.1483 495.547C35.0311 495.474 32.561 494.389 30.7381 492.293C28.9334 490.178 28.0858 487.435 28.1952 484.062L35.742 484.09C35.6873 485.603 35.9426 486.815 36.5077 487.727C37.0728 488.62 37.8748 489.085 38.9139 489.121C40.4816 489.158 41.7577 488.456 42.742 487.016C43.7264 485.576 44.1548 483.743 44.0272 481.52C43.9725 480.426 43.6626 479.551 43.0975 478.895C42.5324 478.238 41.7303 477.883 40.6912 477.828L36.6717 477.801L37.6561 471.566ZM66.9137 495.547C64.8721 495.492 63.1494 494.918 61.7458 493.824C60.3421 492.73 59.3213 491.154 58.6833 489.094C58.0635 487.016 57.7901 484.71 57.863 482.176C57.8994 480.9 57.9906 479.688 58.1364 478.539L59.3122 470.855C60.1872 465.423 61.7731 461.34 64.07 458.605C66.3669 455.853 69.2927 454.522 72.8473 454.613C75.9281 454.723 78.2341 455.944 79.7653 458.277C81.3148 460.611 82.0348 463.837 81.9255 467.957C81.889 469.233 81.7979 470.445 81.652 471.594L80.3942 479.715C79.3187 485.803 77.3864 490.142 74.5973 492.73C72.4463 494.717 69.8851 495.656 66.9137 495.547ZM74.2145 470.445L74.57 467.438L74.6247 465.059C74.5882 463.855 74.3604 462.898 73.9411 462.188C73.5218 461.458 72.9203 461.066 72.1364 461.012C70.7874 460.902 69.6664 461.568 68.7731 463.008C67.8981 464.448 67.251 466.927 66.8317 470.445L65.5192 479.633L65.1637 482.695L65.1091 485.074C65.182 487.717 66.0205 489.085 67.6247 489.176C68.9554 489.285 70.0583 488.638 70.9333 487.234C71.8265 485.831 72.4828 483.297 72.902 479.633L74.2145 470.445Z" fill="#CF2D1E"/>
<path d="M14.8789 633.137L19.582 624.414H27.8672L18.8438 639.234L23.1914 654H15.4531L13.4023 644.785L8.45312 654H0.113281L9.49219 638.523L5.33594 624.414H13.0742L14.8789 633.137ZM49.3866 638.961H52.6952L51.5741 645.387H48.2928L46.7889 654H39.2147L40.7459 645.387H27.9764L28.5233 640.027L45.9139 614.188H53.6795L49.3866 638.961ZM36.2069 638.961H41.8397L44.3827 625.535L44.1092 625.945L36.2069 638.961Z" fill="#CF2D1E"/>
<path d="M14.8789 729.137L19.582 720.414H27.8672L18.8438 735.234L23.1914 750H15.4531L13.4023 740.785L8.45312 750H0.113281L9.49219 734.523L5.33594 720.414H13.0742L14.8789 729.137ZM37.6561 726.566L41.0467 726.621C42.7238 726.585 44.0181 725.865 44.9295 724.461C45.8592 723.039 46.2511 721.307 46.1053 719.266C45.9048 717.133 44.966 716.039 43.2889 715.984C42.2316 715.984 41.3475 716.385 40.6366 717.188C39.9256 717.99 39.4517 719.083 39.2147 720.469L31.6678 720.496C31.923 717.27 33.1717 714.645 35.4139 712.621C37.6561 710.579 40.3814 709.577 43.5897 709.613C46.8162 709.686 49.3683 710.734 51.2459 712.758C53.1235 714.763 53.953 717.443 53.7342 720.797C53.4608 724.534 51.3462 727.496 47.3905 729.684C48.8123 730.522 49.8605 731.698 50.535 733.211C51.2095 734.724 51.4829 736.529 51.3553 738.625C51.1912 740.922 50.5259 742.991 49.3592 744.832C48.2108 746.655 46.6431 748.077 44.6561 749.098C42.6691 750.118 40.4998 750.602 38.1483 750.547C35.0311 750.474 32.561 749.389 30.7381 747.293C28.9334 745.178 28.0858 742.435 28.1952 739.062L35.742 739.09C35.6873 740.603 35.9426 741.815 36.5077 742.727C37.0728 743.62 37.8748 744.085 38.9139 744.121C40.4816 744.158 41.7577 743.456 42.742 742.016C43.7264 740.576 44.1548 738.743 44.0272 736.52C43.9725 735.426 43.6626 734.551 43.0975 733.895C42.5324 733.238 41.7303 732.883 40.6912 732.828L36.6717 732.801L37.6561 726.566Z" fill="#CF2D1E"/>
<rect x="107" width="13" height="874" rx="6.5" fill="black"/>
<rect x="107" y="858" width="1195" height="16" rx="8" fill="black"/>
<path d="M254.5 730.5L409.521 701.635C690.96 649.231 931.963 468.793 1061.5 213.5V213.5" stroke="url(#paint0_linear_16991_35856)" stroke-width="24" stroke-linecap="round" stroke-linejoin="round"/>
<path fill-rule="evenodd" clip-rule="evenodd" d="M1114.4 82.7455C1114.97 89.0546 1121.7 92.8208 1127.84 90.2675C1131.66 88.6759 1134.12 84.7617 1133.77 80.8306C1133.2 74.5196 1126.47 70.7533 1120.33 73.3061C1116.51 74.8978 1114.05 78.8125 1114.4 82.7455ZM1145.07 41.3873C1145.53 41.2627 1145.98 41.4626 1146.17 41.8708C1148.15 46.1058 1157.59 69.8514 1140.1 104.76C1138.27 108.411 1136.05 111.716 1133.62 114.695C1133.4 114.963 1133.35 115.306 1133.5 115.607C1135.45 119.574 1138.69 127.725 1135.86 133.613C1130.03 145.764 1118.45 151.392 1114.69 152.952C1114.08 153.207 1113.4 152.835 1113.31 152.209C1113.31 152.209 1111.07 136.447 1110.57 133.072C1110.53 132.752 1110.18 132.562 1109.86 132.691C1108.01 133.428 1105.17 134.505 1104.32 134.532C1103.02 134.572 1091.99 129.667 1091.23 128.679C1090.72 128.026 1089.93 125.306 1089.45 123.541C1089.37 123.257 1089.03 123.125 1088.76 123.272L1070.49 133.144C1069.98 133.417 1069.36 133.177 1069.22 132.648C1068.28 129.1 1065.82 116.859 1072.65 104.942C1075.99 99.1021 1085.23 96.5819 1089.65 95.6815C1089.99 95.612 1090.26 95.3684 1090.35 95.0419C1091.52 91.0556 1093.19 87.0127 1095.55 83.1254C1115.03 50.9435 1140.37 42.6817 1145.07 41.3873ZM1100.61 139.267C1101.15 138.331 1101.47 137.765 1102.73 137.726C1104.31 137.678 1104.71 141.854 1102.68 145.622C1101.46 147.884 1099.38 149.958 1096.91 151.273C1091.41 154.19 1085.78 154.716 1085.78 154.716C1085.78 154.716 1082.8 150.173 1081.93 144.303C1081.53 141.661 1082.02 138.846 1083.19 136.563C1085.14 132.756 1088.91 130.514 1089.83 131.721C1090.56 132.674 1090.27 133.248 1089.78 134.192C1089.26 135.217 1088.52 136.679 1088.61 139.537C1088.74 143.254 1090.22 144.829 1090.59 145.215C1090.64 145.27 1090.67 145.301 1090.67 145.311C1090.67 145.306 1090.7 145.309 1090.77 145.314C1091.26 145.357 1093.5 145.55 1096.77 143.347C1099.23 141.692 1100.04 140.268 1100.61 139.267Z" fill="#CF2D1E"/>
<defs>
<linearGradient id="paint0_linear_16991_35856" x1="1058" y1="218" x2="243.5" y2="731" gradientUnits="userSpaceOnUse">
<stop stop-color="#CF2D1E"/>
<stop offset="1" stop-color="#CF2D1E" stop-opacity="0"/>
</linearGradient>
</defs>
</svg>
