<svg width="24" height="24" viewBox="0 0 24 24" fill="none" xmlns="http://www.w3.org/2000/svg">
<mask id="path-2-inside-1_16336_35656" fill="white">
<path d="M4.0997 22C3.83058 22 3.59575 21.9125 3.41263 21.7473C3.59575 21.9125 3.8312 22 4.10032 22C4.12365 22 4.14736 21.9994 4.17139 21.9982C4.14705 21.9994 4.12303 22 4.0997 22ZM4.10001 21.8861C3.83089 21.8864 3.59606 21.7986 3.41294 21.6334L13.0461 11.9999L16.2579 15.2123L4.97113 21.6252C4.65886 21.8023 4.36299 21.8861 4.10001 21.8861ZM3.41022 21.7452C3.39319 21.7297 3.37647 21.7133 3.36006 21.6963L3.41022 21.7452Z"/>
<path d="M4.10032 22C3.8312 22 3.59575 21.9125 3.41263 21.7473C3.412 21.7467 3.41107 21.7458 3.41022 21.7452L3.36006 21.6963C3.35851 21.6947 3.35703 21.693 3.35516 21.6912L3.41294 21.6334C3.59606 21.7986 3.83089 21.8864 4.10001 21.8861C4.36299 21.8861 4.65886 21.8023 4.97113 21.6252L16.2579 15.2123L16.3302 15.2846L4.97113 21.7388C4.68654 21.9001 4.41586 21.9842 4.17139 21.9982C4.14736 21.9994 4.12365 22 4.10032 22Z"/>
</mask>
<path d="M4.0997 22C3.83058 22 3.59575 21.9125 3.41263 21.7473C3.59575 21.9125 3.8312 22 4.10032 22C4.12365 22 4.14736 21.9994 4.17139 21.9982C4.14705 21.9994 4.12303 22 4.0997 22ZM4.10001 21.8861C3.83089 21.8864 3.59606 21.7986 3.41294 21.6334L13.0461 11.9999L16.2579 15.2123L4.97113 21.6252C4.65886 21.8023 4.36299 21.8861 4.10001 21.8861ZM3.41022 21.7452C3.39319 21.7297 3.37647 21.7133 3.36006 21.6963L3.41022 21.7452Z" fill="#CF2D1E"/>
<path d="M4.10032 22C3.8312 22 3.59575 21.9125 3.41263 21.7473C3.412 21.7467 3.41107 21.7458 3.41022 21.7452L3.36006 21.6963C3.35851 21.6947 3.35703 21.693 3.35516 21.6912L3.41294 21.6334C3.59606 21.7986 3.83089 21.8864 4.10001 21.8861C4.36299 21.8861 4.65886 21.8023 4.97113 21.6252L16.2579 15.2123L16.3302 15.2846L4.97113 21.7388C4.68654 21.9001 4.41586 21.9842 4.17139 21.9982C4.14736 21.9994 4.12365 22 4.10032 22Z" fill="#CF2D1E"/>
<path d="M4.10001 21.8861V21.6134H4.09969L4.10001 21.8861ZM4.97113 21.6252L5.10565 21.8625L5.10586 21.8624L4.97113 21.6252ZM3.22992 21.9498C3.46712 22.1638 3.76925 22.2728 4.10032 22.2728V21.7273C3.89315 21.7273 3.72437 21.6613 3.59533 21.5448L3.22992 21.9498ZM4.10032 22.2728C4.12848 22.2728 4.15662 22.272 4.18462 22.2706L4.15817 21.7258C4.13811 21.7268 4.11882 21.7273 4.10032 21.7273V22.2728ZM4.09969 21.6134C3.89316 21.6136 3.72497 21.5476 3.59564 21.4309L3.23023 21.8359C3.46715 22.0497 3.76862 22.1592 4.10032 22.1588L4.09969 21.6134ZM16.1232 14.9752L4.8364 21.3881L5.10586 21.8624L16.3926 15.4494L16.1232 14.9752ZM4.83662 21.388C4.55524 21.5475 4.30543 21.6134 4.10001 21.6134V22.1588C4.42055 22.1588 4.76248 22.0571 5.10565 21.8625L4.83662 21.388ZM3.16965 21.8916L3.21981 21.9405L3.60063 21.55L3.55047 21.501L3.16965 21.8916ZM3.41263 21.7473L3.02693 22.133L3.03683 22.1429L3.04721 22.1523L3.41263 21.7473ZM4.17139 21.9982L4.1975 22.5431L4.20257 22.5428L4.17139 21.9982ZM3.41294 21.6334L3.79864 22.0191L3.79864 22.0191L3.41294 21.6334ZM13.0461 11.9999L13.4318 11.6143L13.0461 11.2285L12.6604 11.6143L13.0461 11.9999ZM16.2579 15.2123L15.8722 15.5979L15.8722 15.598L16.2579 15.2123ZM3.41022 21.7452L3.0434 22.1489L3.06538 22.1689L3.0894 22.1863L3.41022 21.7452ZM3.36006 21.6963L3.75293 21.3178L3.74576 21.3106L3.36006 21.6963ZM3.35516 21.6912L2.96947 21.3055L2.57548 21.6995L2.97776 22.085L3.35516 21.6912ZM16.3302 15.2846L16.5997 15.7588L17.2221 15.4052L16.7159 14.8989L16.3302 15.2846ZM4.97113 21.7388L5.24005 22.2134L5.2406 22.2131L4.97113 21.7388ZM4.0997 21.4546C3.95483 21.4546 3.85324 21.4102 3.77804 21.3424L3.04721 22.1523C3.33825 22.4149 3.70632 22.5455 4.0997 22.5455V21.4546ZM4.14528 21.4534C4.12872 21.4542 4.11344 21.4546 4.0997 21.4546V22.5455C4.13261 22.5455 4.16539 22.5446 4.1975 22.5431L4.14528 21.4534ZM3.79864 22.0191L13.4318 12.3856L12.6604 11.6143L3.02724 21.2477L3.79864 22.0191ZM12.6604 12.3856L15.8722 15.5979L16.6436 14.8266L13.4318 11.6143L12.6604 12.3856ZM3.77704 21.3415C3.77041 21.3355 3.76238 21.3277 3.75287 21.3179L2.96726 22.0748C2.99056 22.0989 3.01597 22.124 3.0434 22.1489L3.77704 21.3415ZM3.79832 21.3616C3.78732 21.3506 3.76391 21.328 3.73104 21.3041L3.0894 22.1863C3.07146 22.1733 3.05796 22.1618 3.05014 22.1548C3.04164 22.1473 3.03393 22.14 3.02693 22.133L3.79832 21.3616ZM3.74576 21.3106C3.75155 21.3164 3.7559 21.321 3.75777 21.323C3.75875 21.3241 3.75947 21.3249 3.75957 21.325C3.75962 21.325 3.75967 21.3251 3.75951 21.3249C3.7594 21.3248 3.75913 21.3245 3.75882 21.3242C3.75768 21.3229 3.75437 21.3193 3.75015 21.3149C3.74577 21.3104 3.73981 21.3043 3.73257 21.2974L2.97776 22.085C2.97145 22.0789 2.96637 22.0738 2.96284 22.0701C2.95947 22.0666 2.95698 22.0639 2.95664 22.0635C2.95653 22.0634 2.95646 22.0633 2.95655 22.0634C2.95658 22.0634 2.95683 22.0637 2.95707 22.064C2.95756 22.0645 2.95867 22.0657 2.96004 22.0672C2.96268 22.07 2.96779 22.0754 2.97437 22.082L3.74576 21.3106ZM3.74086 22.0769L3.79864 22.0191L3.02724 21.2477L2.96947 21.3055L3.74086 22.0769ZM15.8722 15.598L15.9445 15.6703L16.7159 14.8989L16.6436 14.8266L15.8722 15.598ZM4.70222 21.2643C4.47392 21.3936 4.28402 21.4454 4.14021 21.4537L4.20257 22.5428C4.5477 22.523 4.89915 22.4066 5.24005 22.2134L4.70222 21.2643ZM16.0607 14.8104L4.70167 21.2646L5.2406 22.2131L16.5997 15.7588L16.0607 14.8104Z" fill="white" mask="url(#path-2-inside-1_16336_35656)"/>
<path d="M20.6773 12.0001V12.0011C20.6773 12.0946 20.6566 12.191 20.612 12.289L20.6097 12.2939C20.6097 12.294 20.6097 12.294 20.6096 12.2941C20.5185 12.491 20.3257 12.7012 20.0004 12.886L16.3764 14.9448L13.432 11.9999L16.3764 9.05535L20.0004 11.1144L20.0004 11.1144C20.4945 11.395 20.6777 11.7262 20.6773 11.9992L20.6773 12.0001Z" fill="#CF2D1E" stroke="white" stroke-width="0.545455"/>
<path d="M3.77147 2.33965L3.6055 2.17369L3.60525 2.17344L3.5696 2.1376C3.72145 2.04827 3.89796 2.00114 4.09288 2H4.09864C4.10958 2 4.12058 2.00014 4.13163 2.00044C4.38663 2.0069 4.67122 2.09096 4.97128 2.2613L3.41363 2.36457L3.41216 2.36604L3.41363 2.36457L3.55262 2.49725C3.56703 2.48215 3.57927 2.46994 3.59064 2.45951C3.59148 2.45879 3.5924 2.45799 3.5934 2.4571L3.59359 2.45731L3.59739 2.45352C3.64926 2.40713 3.70728 2.36885 3.77147 2.33965ZM3.77147 2.33965C3.86559 2.29684 3.97298 2.27353 4.09373 2.27273H4.09864C4.10717 2.27273 4.11578 2.27284 4.12445 2.27307L4.12472 2.27308C4.32533 2.27816 4.56631 2.34503 4.83655 2.49842C4.83658 2.49844 4.83661 2.49846 4.83665 2.49847L15.8841 8.77602M3.77147 2.33965L13.0462 11.6142M15.8841 8.77602L13.0462 11.6142M15.8841 8.77602L13.0462 11.6142M15.8841 8.77602L13.0462 11.6142" fill="#CF2D1E" stroke="white" stroke-width="0.545455"/>
<path d="M3.27173 3.27092C3.28474 3.05382 3.3296 2.87589 3.39489 2.73452L12.6605 11.9999L3.3952 21.2653C3.31703 21.0963 3.26815 20.8755 3.26815 20.5989V3.39668C3.26815 3.37178 3.2686 3.34724 3.26945 3.32317L3.27173 3.31709V3.27092Z" fill="#CF2D1E" stroke="white" stroke-width="0.545455"/>
</svg>
