<svg width="24" height="24" fill="none" xmlns="http://www.w3.org/2000/svg"><mask id="a" fill="#fff"><path d="M4.1 22zm0-.114a1 1 0 01-.687-.252L13.046 12l3.212 3.212L4.97 21.625c-.312.177-.608.261-.871.261zm-.69-.14a1.08 1.08 0 01-.05-.05l.05.05z"/><path d="M4.1 22c-.269 0-.504-.087-.687-.253l-.003-.002-.05-.049-.005-.005.058-.057a1 1 0 00.687.252c.263 0 .559-.084.871-.26l11.287-6.414.072.073-11.359 6.454a1.859 1.859 0 01-.8.26 1.425 1.425 0 01-.07.001z"/></mask><path d="M4.1 22zm0-.114a1 1 0 01-.687-.252L13.046 12l3.212 3.212L4.97 21.625c-.312.177-.608.261-.871.261zm-.69-.14a1.08 1.08 0 01-.05-.05l.05.05z" fill="#fff"/><path d="M4.1 22c-.269 0-.504-.087-.687-.253l-.003-.002-.05-.049-.005-.005.058-.057a1 1 0 00.687.252c.263 0 .559-.084.871-.26l11.287-6.414.072.073-11.359 6.454a1.859 1.859 0 01-.8.26 1.425 1.425 0 01-.07.001z" fill="#fff"/><path d="M4.1 21.886v-.273.273zm.871-.26l.135.236-.135-.237zm-1.741.324c.237.214.54.323.87.323v-.546a.73.73 0 01-.505-.182l-.365.405zm.87.323c.028 0 .057 0 .085-.002l-.027-.545-.058.001v.546zm0-.66a.727.727 0 01-.504-.182l-.366.405c.237.214.539.323.87.323v-.546zm12.023-6.638L4.836 21.388l.27.474 11.287-6.412-.27-.475zM4.837 21.388c-.282.16-.532.225-.737.225v.546c.32 0 .662-.102 1.006-.296l-.27-.475zm-1.667.504l.05.049.38-.391-.05-.049-.38.39zm.243-.145l-.386.386.01.01.01.01.366-.406zm.758.251l.026.545h.006l-.032-.545zm-.758-.364l.386.385-.386-.385zM13.046 12l.386-.386-.386-.385-.386.385.386.386zm3.212 3.212l-.386.386.386-.386zM3.41 21.745l-.367.404.022.02.024.017.321-.44zm-.05-.049l.393-.378-.007-.007-.386.385zm-.005-.005l-.386-.386-.394.395.403.385.377-.394zm12.975-6.406l.27.474.622-.354-.506-.506-.386.386zM4.971 21.739l.269.474-.269-.474zm-.871-.284a.457.457 0 01-.322-.113l-.73.81c.29.263.658.393 1.052.393v-1.09zm.045-.002a.945.945 0 01-.045.002v1.09c.033 0 .065 0 .097-.002l-.052-1.09zm-.346.566l9.633-9.633-.772-.772-9.633 9.634.772.771zm8.861-9.633l3.212 3.212.772-.771-3.212-3.213-.772.772zm-8.883 8.956a.496.496 0 01-.024-.024l-.786.757.076.074.734-.807zm.021.02a.574.574 0 00-.067-.058l-.642.882a.522.522 0 01-.062-.053l.771-.771zm-.052-.051a.523.523 0 01.014.014h-.001l-.009-.01a.611.611 0 00-.017-.018l-.755.788a.422.422 0 01-.021-.021l.003.003a.526.526 0 00.014.015l.772-.771zm-.005.766l.058-.058-.772-.771-.058.057.772.772zm12.131-6.479l.072.072.772-.771-.072-.072-.772.771zm-11.17 5.666c-.228.13-.418.181-.562.19l.063 1.089c.345-.02.696-.136 1.037-.33l-.538-.949zm11.359-6.454L4.7 21.265l.54.948L16.6 15.76l-.54-.949z" fill="#CF2D1E" mask="url(#a)"/><path d="M20.677 12v.001c0 .094-.02.19-.065.288l-.002.005s0 0 0 0c-.091.197-.284.407-.61.592l-3.624 2.059L13.432 12l2.944-2.944L20 11.115h0c.494.28.678.611.677.884V12zM3.771 2.34l-.165-.166h0l-.036-.036c.151-.09.328-.137.523-.138h.039c.255.007.54.091.84.261l-1.558.104-.002.001.002-.001.139.132a.811.811 0 01.038-.037l.002-.003h0l.004-.003a.687.687 0 01.174-.114zm0 0a.783.783 0 01.323-.067H4.124c.201.005.442.072.713.225 0 0 0 0 0 0l11.047 6.278M3.771 2.34l9.275 9.274m2.838-2.838l-2.838 2.838m2.838-2.838l-2.838 2.838m2.838-2.838l-2.838 2.838M3.272 3.27a1.49 1.49 0 01.123-.536L12.66 12l-9.266 9.265a1.584 1.584 0 01-.127-.666V3.397l.001-.074.003-.006v-.046z" fill="#fff" stroke="#CF2D1E" stroke-width=".545"/></svg>