<svg width="30" height="24" viewBox="0 0 30 24" fill="none" xmlns="http://www.w3.org/2000/svg">
<path d="M0.32979 11.9886C0.0253685 12.4053 -0.0682997 12.7841 0.0487855 13.125C0.173676 13.4583 0.493709 13.625 1.00888 13.625H2.73004C2.92518 15.0568 3.37401 16.4015 4.07652 17.6591C4.78683 18.9091 5.69229 20.0114 6.79289 20.9659C7.89349 21.9205 9.1424 22.6629 10.5396 23.1932C11.9368 23.7311 13.4277 24 15.0123 24C16.6359 24 18.1619 23.7008 19.5903 23.1023C21.0187 22.5114 22.2598 21.7197 23.3136 20.7273C23.6961 20.4091 23.899 20.0492 23.9225 19.6477C23.9537 19.2386 23.8483 18.8902 23.6063 18.6023C23.3565 18.2992 23.0209 18.125 22.5994 18.0795C22.1857 18.0341 21.7564 18.1856 21.3115 18.5341C20.5075 19.2917 19.563 19.8939 18.478 20.3409C17.4008 20.7879 16.2456 21.0114 15.0123 21.0114C13.8492 21.0114 12.7525 20.822 11.7222 20.4432C10.6918 20.072 9.77076 19.5492 8.95897 18.875C8.14718 18.1932 7.47199 17.4053 6.9334 16.5114C6.40261 15.6174 6.04745 14.6553 5.86792 13.625H7.65932C8.15889 13.625 8.47111 13.4583 8.59601 13.125C8.7287 12.7841 8.63894 12.4091 8.32671 12L5.23566 7.84091C4.98588 7.50758 4.68536 7.34091 4.3341 7.34091C3.98285 7.34091 3.68233 7.50758 3.43255 7.84091L0.32979 11.9886ZM6.72264 3.27273C6.34016 3.59848 6.13331 3.96212 6.10209 4.36364C6.07867 4.76515 6.18795 5.10606 6.42993 5.38636C6.68752 5.68939 7.02316 5.86742 7.43686 5.92045C7.85056 5.96591 8.27987 5.81439 8.7248 5.46591C9.52878 4.70833 10.4733 4.10606 11.5583 3.65909C12.6433 3.21212 13.7946 2.98864 15.0123 2.98864C16.1831 2.98864 17.2837 3.18182 18.3141 3.56818C19.3444 3.94697 20.2616 4.47348 21.0656 5.14773C21.8774 5.82197 22.5487 6.60606 23.0794 7.5C23.618 8.39394 23.981 9.35606 24.1683 10.3864H22.3535C21.854 10.3864 21.5378 10.5568 21.4051 10.8977C21.2724 11.2311 21.3622 11.6023 21.6744 12.0114L24.7772 16.1705C25.027 16.5038 25.3236 16.6705 25.667 16.6705C26.0183 16.6705 26.3188 16.5038 26.5686 16.1705L29.6713 12.0227C29.9836 11.6061 30.0733 11.2311 29.9406 10.8977C29.8157 10.5568 29.4996 10.3864 28.9922 10.3864H27.3062C27.1033 8.95455 26.6505 7.61364 25.948 6.36364C25.2455 5.10606 24.3401 4 23.2317 3.04545C22.1311 2.09091 20.8821 1.3447 19.4849 0.806818C18.0877 0.268939 16.5968 0 15.0123 0C13.3965 0 11.8744 0.299242 10.446 0.897727C9.01751 1.48864 7.77641 2.2803 6.72264 3.27273Z" fill="#CF2D1E"/>
</svg>
