<svg width="1920" height="2253" fill="none" xmlns="http://www.w3.org/2000/svg"><path fill-rule="evenodd" clip-rule="evenodd" d="M-122 50c0-27.614 22.386-50 50-50h1557.69c178.87 0 323.87 145.002 323.87 323.87 0 178.869-145 323.87-323.87 323.87H434.351c-121.626 0-220.224 98.598-220.224 220.225s98.598 220.225 220.224 220.225H1478.13c172.97 0 313.19 140.22 313.19 313.19s-140.22 313.19-313.19 313.19H433.34c-121.068 0-219.213 98.15-219.213 219.22 0 121.06 98.145 219.21 219.213 219.21H1984c27.61 0 50 22.39 50 50s-22.39 50-50 50H433.34c-176.297 0-319.213-142.92-319.213-319.21 0-176.3 142.917-319.22 319.213-319.22h1044.79c117.74 0 213.19-95.45 213.19-213.19s-95.45-213.19-213.19-213.19H434.351c-176.855 0-320.224-143.37-320.224-320.225 0-176.855 143.369-320.225 320.224-320.225H1485.69c123.64 0 223.87-100.23 223.87-223.87S1609.33 100 1485.69 100H-72c-27.614 0-50-22.386-50-50Z" fill="url(#a)"/><defs><linearGradient id="a" x1="-5.991" y1="-541.226" x2="2725.34" y2="865.603" gradientUnits="userSpaceOnUse"><stop stop-color="#D1D1D5" stop-opacity="0"/><stop offset="1" stop-color="#D1D1D5"/></linearGradient></defs></svg>