<svg width="298" height="100" viewBox="0 0 298 100" fill="none" xmlns="http://www.w3.org/2000/svg">
<rect width="298" height="100" rx="24" fill="#CF2D1E"/>
<path fill-rule="evenodd" clip-rule="evenodd" d="M24 59.3722V49.6204C24 48.2225 24.2739 46.8349 24.8061 45.5423L28.375 36.875L24.046 34.1202C23.1064 33.5223 23.3588 32.0869 24.4459 31.8454L27.66 31.1311C31.0432 30.3793 34.4985 30 37.9642 30H46.0952C54.8768 30 63.0145 34.6075 67.5326 42.1376L67.75 42.5L72.641 43.7228C78.6856 45.2339 83.0979 50.425 83.6153 56.6341L83.8096 58.9657C83.9172 60.2569 84.9966 61.25 86.2922 61.25H87.125C88.1605 61.25 89 62.0895 89 63.125C89 64.1605 88.1605 65 87.125 65H81.5V61.25C81.5 55.0368 76.4632 50 70.25 50C64.4824 50 59.7286 54.3402 59.0763 59.9327C59.0508 59.955 59.0254 59.9774 59 60H49L48.9674 59.9711L48.9237 59.9327C48.2714 54.3402 43.5176 50 37.75 50C31.5368 50 26.5 55.0368 26.5 61.25V65H20.25V63.125C20.25 62.0895 21.0895 61.25 22.125 61.25C23.1605 61.25 24 60.4078 24 59.3722ZM46.337 35C45.0463 35 44 36.0463 44 37.337V45.3365C44 46.5314 44.9686 47.5 46.1635 47.5H61.5C61.5 40.5964 55.9036 35 49 35H46.337Z" fill="white"/>
<circle cx="37.75" cy="61.25" r="7.5" stroke="white" stroke-width="2.5"/>
<circle cx="70.25" cy="61.25" r="7.5" stroke="white" stroke-width="2.5"/>
<rect x="49" y="62.5" width="10" height="2.5" fill="white"/>
<path fill-rule="evenodd" clip-rule="evenodd" d="M24 49.6204V59.3722C24 60.4078 23.1605 61.25 22.125 61.25C21.0895 61.25 20.25 62.0895 20.25 63.125V65H26.5V61.25C26.5 55.0368 31.5368 50 37.75 50C43.5176 50 48.2714 54.3402 48.9237 59.9327L49 60H59L59.0763 59.9327C59.7286 54.3402 64.4824 50 70.25 50C76.4632 50 81.5 55.0368 81.5 61.25V65H87.125C88.1605 65 89 64.1605 89 63.125C89 62.0895 88.1605 61.25 87.125 61.25H86.2922C84.9966 61.25 83.9172 60.2569 83.8096 58.9657L83.6153 56.6341C83.0979 50.425 78.6856 45.2339 72.641 43.7228L67.75 42.5L67.5326 42.1376C63.0145 34.6075 54.8768 30 46.0952 30H37.9642C34.4985 30 31.0432 30.3793 27.66 31.1311L24.4459 31.8454C23.3588 32.0869 23.1064 33.5223 24.046 34.1202L28.375 36.875L24.8061 45.5423C24.2739 46.8349 24 48.2225 24 49.6204ZM44 37.337C44 36.0463 45.0463 35 46.337 35H49C55.9036 35 61.5 40.5964 61.5 47.5H46.1635C44.9686 47.5 44 46.5314 44 45.3365V37.337Z" fill="white"/>
<path fill-rule="evenodd" clip-rule="evenodd" d="M46.5 61.25C46.5 66.0825 42.5825 70 37.75 70C32.9175 70 29 66.0825 29 61.25C29 56.4175 32.9175 52.5 37.75 52.5C42.5825 52.5 46.5 56.4175 46.5 61.25ZM44 61.25C44 64.7018 41.2018 67.5 37.75 67.5C34.2982 67.5 31.5 64.7018 31.5 61.25C31.5 57.7982 34.2982 55 37.75 55C41.2018 55 44 57.7982 44 61.25Z" fill="white"/>
<path fill-rule="evenodd" clip-rule="evenodd" d="M70.25 70C75.0825 70 79 66.0825 79 61.25C79 56.4175 75.0825 52.5 70.25 52.5C65.4175 52.5 61.5 56.4175 61.5 61.25C61.5 66.0825 65.4175 70 70.25 70ZM70.25 67.5C73.7018 67.5 76.5 64.7018 76.5 61.25C76.5 57.7982 73.7018 55 70.25 55C66.7982 55 64 57.7982 64 61.25C64 64.7018 66.7982 67.5 70.25 67.5Z" fill="white"/>
<path d="M59 62.5H49V65H59V62.5Z" fill="white"/>
<path fill-rule="evenodd" clip-rule="evenodd" d="M215 59.3722V49.6204C215 48.2225 215.274 46.8349 215.806 45.5423L219.375 36.875L215.046 34.1202C214.106 33.5223 214.359 32.0869 215.446 31.8454L218.66 31.1311C222.043 30.3793 225.498 30 228.964 30H237.095C245.877 30 254.014 34.6075 258.533 42.1376L258.75 42.5L263.641 43.7228C269.686 45.2339 274.098 50.425 274.615 56.6341L274.81 58.9657C274.917 60.2569 275.997 61.25 277.292 61.25H278.125C279.161 61.25 280 62.0895 280 63.125C280 64.1605 279.161 65 278.125 65H272.5V61.25C272.5 55.0368 267.463 50 261.25 50C255.482 50 250.729 54.3402 250.076 59.9327C250.051 59.955 250.025 59.9774 250 60H240C239.975 59.9774 239.949 59.955 239.924 59.9327C239.271 54.3402 234.518 50 228.75 50C222.537 50 217.5 55.0368 217.5 61.25V65H211.25V63.125C211.25 62.0895 212.089 61.25 213.125 61.25C214.161 61.25 215 60.4078 215 59.3722ZM237.337 35C236.046 35 235 36.0463 235 37.337V45.3365C235 46.5314 235.969 47.5 237.163 47.5H252.5C252.5 40.5964 246.904 35 240 35H237.337Z" fill="white"/>
<circle cx="228.75" cy="61.25" r="7.5" stroke="white" stroke-width="2.5"/>
<circle cx="261.25" cy="61.25" r="7.5" stroke="white" stroke-width="2.5"/>
<rect x="240" y="62.5" width="10" height="2.5" fill="white"/>
<path fill-rule="evenodd" clip-rule="evenodd" d="M215 49.6204V59.3722C215 60.4078 214.161 61.25 213.125 61.25C212.089 61.25 211.25 62.0895 211.25 63.125V65H217.5V61.25C217.5 55.0368 222.537 50 228.75 50C234.518 50 239.271 54.3402 239.924 59.9327L240 60H250L250.076 59.9327C250.729 54.3402 255.482 50 261.25 50C267.463 50 272.5 55.0368 272.5 61.25V65H278.125C279.161 65 280 64.1605 280 63.125C280 62.0895 279.161 61.25 278.125 61.25H277.292C275.997 61.25 274.917 60.2569 274.81 58.9657L274.615 56.6341C274.098 50.425 269.686 45.2339 263.641 43.7228L258.75 42.5L258.533 42.1376C254.014 34.6075 245.877 30 237.095 30H228.964C225.498 30 222.043 30.3793 218.66 31.1311L215.446 31.8454C214.359 32.0869 214.106 33.5223 215.046 34.1202L219.375 36.875L215.806 45.5423C215.274 46.8349 215 48.2225 215 49.6204ZM235 37.337C235 36.0463 236.046 35 237.337 35H240C246.904 35 252.5 40.5964 252.5 47.5H237.163C235.969 47.5 235 46.5314 235 45.3365V37.337Z" fill="white"/>
<path fill-rule="evenodd" clip-rule="evenodd" d="M237.5 61.25C237.5 66.0825 233.582 70 228.75 70C223.918 70 220 66.0825 220 61.25C220 56.4175 223.918 52.5 228.75 52.5C233.582 52.5 237.5 56.4175 237.5 61.25ZM235 61.25C235 64.7018 232.202 67.5 228.75 67.5C225.298 67.5 222.5 64.7018 222.5 61.25C222.5 57.7982 225.298 55 228.75 55C232.202 55 235 57.7982 235 61.25Z" fill="white"/>
<path fill-rule="evenodd" clip-rule="evenodd" d="M261.25 70C266.082 70 270 66.0825 270 61.25C270 56.4175 266.082 52.5 261.25 52.5C256.418 52.5 252.5 56.4175 252.5 61.25C252.5 66.0825 256.418 70 261.25 70ZM261.25 67.5C264.702 67.5 267.5 64.7018 267.5 61.25C267.5 57.7982 264.702 55 261.25 55C257.798 55 255 57.7982 255 61.25C255 64.7018 257.798 67.5 261.25 67.5Z" fill="white"/>
<path d="M250 62.5H240V65H250V62.5Z" fill="white"/>
<g clip-path="url(#clip0_16557_35686)">
<path d="M114.24 29.6452L122.171 57.3068C123.646 62.4521 128.365 65.9994 133.735 65.9994C139.345 65.9994 144.21 62.1346 145.46 56.6848L151.718 29.401L142.51 27.3038L136.252 54.5876C135.984 55.7578 134.94 56.5877 133.735 56.5877C132.582 56.5877 131.569 55.826 131.252 54.7212L123.321 27.0596L114.24 29.6452Z" fill="white"/>
<path d="M160.336 43.4112C159.815 43.4112 159.392 43.8326 159.392 44.3524C159.392 44.8722 159.815 45.2935 160.336 45.2935H171.67C177.408 45.2935 182.059 49.9287 182.059 55.6465C182.059 61.3643 177.408 65.9994 171.67 65.9994H149.947V56.5877H171.67C172.191 56.5877 172.614 56.1663 172.614 55.6465C172.614 55.1267 172.191 54.7053 171.67 54.7053H160.336C154.599 54.7053 149.947 50.0701 149.947 44.3524C149.947 38.6346 154.599 33.9994 160.336 33.9994H182.059V43.4112H160.336Z" fill="white"/>
</g>
<defs>
<clipPath id="clip0_16557_35686">
<rect width="67.7647" height="32" fill="white" transform="translate(115 34)"/>
</clipPath>
</defs>
</svg>
