<svg width="768" height="522" viewBox="0 0 768 522" fill="none" xmlns="http://www.w3.org/2000/svg">
<g>
<rect width="768" height="522" fill="#F2F2F7"/>
<path d="M510.069 464.028C510.069 460.238 513.141 457.166 516.931 457.166H714.339C718.129 457.166 721.201 460.238 721.201 464.028V502.559C721.201 506.349 718.129 509.421 714.339 509.421H516.931C513.141 509.421 510.069 506.349 510.069 502.559V464.028Z" fill="#ECEEED"/>
<path d="M286.27 464.028C286.27 460.238 289.342 457.166 293.131 457.166H490.539C494.329 457.166 497.401 460.238 497.401 464.028V502.559C497.401 506.349 494.329 509.421 490.539 509.421H293.131C289.342 509.421 286.27 506.349 286.27 502.559V464.028Z" fill="#ECEEED"/>
<rect x="286.27" y="282.982" width="120.873" height="49.0881" rx="24.544" fill="#E9E9E7"/>
<rect x="367.027" y="370.074" width="49.0881" height="49.0881" rx="24.544" fill="#E9E9E7"/>
<rect x="260" width="13" height="522" fill="white"/>
<path d="M322.69 257.646H820.96V270.314H322.69V257.646Z" fill="white"/>
<path d="M409.254 431.83H820.96V444.498H409.254V431.83Z" fill="white"/>
<path d="M266.74 453.999V307.569C266.74 283.496 286.256 263.98 310.329 263.98H382.071C406.121 263.98 425.617 283.477 425.617 307.526V311.749C425.617 333.467 408.011 351.072 386.293 351.072V351.072C364.576 351.072 346.97 368.678 346.97 390.395V394.618C346.97 418.668 366.466 438.164 390.516 438.164H440.924" stroke="white" stroke-width="12.6679"/>
<path d="M266.74 437.9V307.569C266.74 283.496 286.256 263.98 310.329 263.98H382.071C406.121 263.98 425.617 283.477 425.617 307.526V311.749C425.617 333.467 408.011 351.072 386.293 351.072V351.072C364.576 351.072 346.97 368.678 346.97 390.395V394.618C346.97 418.668 366.466 438.164 390.516 438.164H645.721" stroke="#DC0000" stroke-width="4.22263"/>
<path opacity="0.13" d="M457.286 438.164C457.286 455.655 443.107 469.834 425.617 469.834C408.126 469.834 393.947 455.655 393.947 438.164C393.947 420.673 408.126 406.494 425.617 406.494C443.107 406.494 457.286 420.673 457.286 438.164Z" fill="#DC0000"/>
<path opacity="0.13" d="M677.391 438.164C677.391 455.655 663.212 469.834 645.721 469.834C628.23 469.834 614.051 455.655 614.051 438.164C614.051 420.673 628.23 406.494 645.721 406.494C663.212 406.494 677.391 420.673 677.391 438.164Z" fill="#DC0000"/>
<circle cx="425.617" cy="438.164" r="6.33394" fill="black"/>
<path d="M425.068 437.879L425.58 437.888C425.832 437.882 426.028 437.774 426.165 437.562C426.305 437.348 426.364 437.086 426.342 436.778C426.312 436.457 426.171 436.292 425.918 436.284C425.758 436.284 425.625 436.344 425.518 436.465C425.411 436.586 425.339 436.751 425.303 436.96L424.165 436.964C424.204 436.477 424.392 436.082 424.73 435.776C425.068 435.469 425.479 435.317 425.963 435.323C426.45 435.334 426.835 435.492 427.118 435.797C427.401 436.099 427.526 436.504 427.493 437.009C427.452 437.573 427.133 438.02 426.536 438.35C426.751 438.476 426.909 438.653 427.01 438.882C427.112 439.11 427.153 439.382 427.134 439.698C427.109 440.044 427.009 440.356 426.833 440.634C426.66 440.909 426.424 441.123 426.124 441.277C425.824 441.431 425.497 441.504 425.142 441.496C424.672 441.485 424.3 441.321 424.025 441.005C423.753 440.686 423.625 440.273 423.641 439.764L424.78 439.768C424.771 439.996 424.81 440.179 424.895 440.317C424.98 440.451 425.101 440.521 425.258 440.527C425.494 440.532 425.687 440.427 425.835 440.209C425.984 439.992 426.048 439.716 426.029 439.38C426.021 439.216 425.974 439.084 425.889 438.985C425.804 438.886 425.683 438.832 425.526 438.824L424.92 438.82L425.068 437.879Z" fill="white"/>
<path opacity="0.13" d="M457.286 307.79C457.286 325.281 443.107 339.46 425.617 339.46C408.126 339.46 393.947 325.281 393.947 307.79C393.947 290.3 408.126 276.12 425.617 276.12C443.107 276.12 457.286 290.3 457.286 307.79Z" fill="#DC0000"/>
<g>
<rect x="639.387" y="431.83" width="3.16697" height="3.16697" fill="black"/>
<rect x="639.387" y="434.997" width="3.16697" height="3.16697" fill="white"/>
<rect x="639.387" y="438.164" width="3.16697" height="3.16697" fill="black"/>
<rect x="639.387" y="441.331" width="3.16697" height="3.16697" fill="white"/>
<rect x="642.554" y="431.83" width="3.16697" height="3.16697" fill="white"/>
<rect x="642.554" y="434.997" width="3.16697" height="3.16697" fill="black"/>
<rect x="642.554" y="438.164" width="3.16697" height="3.16697" fill="white"/>
<rect x="642.554" y="441.331" width="3.16697" height="3.16697" fill="black"/>
<rect x="645.721" y="431.83" width="3.16697" height="3.16697" fill="black"/>
<rect x="645.721" y="434.997" width="3.16697" height="3.16697" fill="white"/>
<rect x="645.721" y="438.164" width="3.16697" height="3.16697" fill="black"/>
<rect x="645.721" y="441.331" width="3.16697" height="3.16697" fill="white"/>
<rect x="648.888" y="431.83" width="3.16697" height="3.16697" fill="white"/>
<rect x="648.888" y="434.997" width="3.16697" height="3.16697" fill="black"/>
<rect x="648.888" y="438.164" width="3.16697" height="3.16697" fill="white"/>
<rect x="648.888" y="441.331" width="3.16697" height="3.16697" fill="black"/>
</g>
<circle cx="425.617" cy="307.79" r="6.33394" fill="black"/>
<path d="M426.936 311.04H423.497L423.633 310.17L425.485 308.149C425.993 307.588 426.265 307.107 426.301 306.706L426.309 306.487C426.309 306.314 426.276 306.175 426.21 306.071C426.145 305.966 426.048 305.913 425.922 305.91C425.548 305.902 425.313 306.208 425.217 306.83L425.204 306.924L424.07 306.929C424.098 306.566 424.2 306.23 424.375 305.922C424.551 305.612 424.784 305.371 425.072 305.201C425.361 305.03 425.68 304.946 426.029 304.949C426.518 304.96 426.894 305.12 427.155 305.427C427.416 305.733 427.525 306.134 427.481 306.632C427.456 306.918 427.373 307.199 427.233 307.477C427.093 307.752 426.89 308.043 426.623 308.351L426.058 308.97L425.138 310.071H427.089L426.936 311.04Z" fill="white"/>
<path d="M82 191.668H244.888C246.07 191.668 246.662 191.668 247.113 191.898C247.511 192.1 247.834 192.423 248.036 192.821C248.266 193.272 248.266 193.864 248.266 195.046V340.832C248.266 342.015 248.266 342.606 248.036 343.058C247.834 343.455 247.511 343.778 247.113 343.98C246.662 344.21 246.07 344.21 244.888 344.21H82V191.668Z" fill="#E9E9E7"/>
<path d="M286.27 198.53C286.27 194.74 289.342 191.668 293.131 191.668H490.539C494.329 191.668 497.401 194.74 497.401 198.53V238.117C497.401 241.906 494.329 244.979 490.539 244.979H293.131C289.342 244.979 286.27 241.906 286.27 238.117V198.53Z" fill="#ECEEED"/>
<path d="M510.069 198.53C510.069 194.74 513.141 191.668 516.931 191.668H714.339C718.129 191.668 721.201 194.74 721.201 198.53V238.117C721.201 241.906 718.129 244.979 714.339 244.979H516.931C513.141 244.979 510.069 241.906 510.069 238.117V198.53Z" fill="#ECEEED"/>
<path d="M82 356.878H244.888C246.07 356.878 246.662 356.878 247.113 357.108C247.511 357.311 247.834 357.634 248.036 358.031C248.266 358.483 248.266 359.074 248.266 360.256V506.043C248.266 507.225 248.266 507.816 248.036 508.268C247.834 508.665 247.511 508.988 247.113 509.191C246.662 509.421 246.07 509.421 244.888 509.421H82V356.878Z" fill="#E9E9E7"/>
<path opacity="0.13" d="M298.41 438.164C298.41 455.655 284.231 469.834 266.74 469.834C249.249 469.834 235.07 455.655 235.07 438.164C235.07 420.673 249.249 406.494 266.74 406.494C284.231 406.494 298.41 420.673 298.41 438.164Z" fill="#DC0000"/>
<path d="M273.074 438.164C273.074 441.662 270.238 444.498 266.74 444.498C263.242 444.498 260.406 441.662 260.406 438.164C260.406 434.666 263.242 431.83 266.74 431.83C270.238 431.83 273.074 434.666 273.074 438.164Z" fill="black"/>
<path d="M267.074 441.413H265.932L266.724 436.853L265.536 437.29L265.718 436.271L267.948 435.401H268.089L267.074 441.413Z" fill="white"/>
</g>
</svg>
