<svg width="2560" height="650" viewBox="0 0 2560 650" fill="none" xmlns="http://www.w3.org/2000/svg">
<rect width="2560" height="650" fill="#F2F2F7"/>
<path d="M1391 540C1391 532.82 1396.82 527 1404 527H1778C1785.18 527 1791 532.82 1791 540V613C1791 620.18 1785.18 626 1778 626H1404C1396.82 626 1391 620.18 1391 613V540Z" fill="#ECEEED"/>
<path d="M967 540C967 532.82 972.82 527 980 527H1354C1361.18 527 1367 532.82 1367 540V613C1367 620.18 1361.18 626 1354 626H980C972.82 626 967 620.18 967 613V540Z" fill="#ECEEED"/>
<rect x="967" y="197" width="229" height="93" rx="46.5" fill="#E9E9E7"/>
<rect x="1120" y="362" width="93" height="93" rx="46.5" fill="#E9E9E7"/>
<rect x="918" width="24" height="650" fill="white"/>
<path d="M1036 149H2560V173H1036V149Z" fill="white"/>
<path d="M1243 479H2560V503H1243V479Z" fill="white"/>
<path d="M930 521V243.581C930 197.973 966.973 161 1012.58 161H1148.5C1194.06 161 1231 197.937 1231 243.5V251.5C1231 292.645 1197.65 326 1156.5 326V326C1115.35 326 1082 359.355 1082 400.5V408.5C1082 454.063 1118.94 491 1164.5 491H1260" stroke="white" stroke-width="24"/>
<path d="M1500 161H1636C1727.13 161 1801 234.873 1801 326V326C1801 417.127 1727.13 491 1636 491H1578" stroke="white" stroke-width="24"/>
<path d="M1815 540C1815 532.82 1820.82 527 1828 527H2202C2209.18 527 2215 532.82 2215 540V613C2215 620.18 2209.18 626 2202 626H1828C1820.82 626 1815 620.18 1815 613V540Z" fill="#ECEEED"/>
<path d="M579 24H887.6C889.84 24 890.96 24 891.816 24.436C892.569 24.8195 893.181 25.4314 893.564 26.184C894 27.0397 894 28.1598 894 30.4V306.6C894 308.84 894 309.96 893.564 310.816C893.181 311.569 892.569 312.181 891.816 312.564C890.96 313 889.84 313 887.6 313H579V24Z" fill="#E9E9E7"/>
<path d="M967 37C967 29.8203 972.82 24 980 24H1354C1361.18 24 1367 29.8203 1367 37V112C1367 119.18 1361.18 125 1354 125H980C972.82 125 967 119.18 967 112V37Z" fill="#ECEEED"/>
<path d="M1391 37C1391 29.8203 1396.82 24 1404 24H1778C1785.18 24 1791 29.8203 1791 37V112C1791 119.18 1785.18 125 1778 125H1404C1396.82 125 1391 119.18 1391 112V37Z" fill="#ECEEED"/>
<path d="M1815 37C1815 29.8203 1820.82 24 1828 24H2202C2209.18 24 2215 29.8203 2215 37V112C2215 119.18 2209.18 125 2202 125H1828C1820.82 125 1815 119.18 1815 112V37Z" fill="#ECEEED"/>
<path d="M579 337H887.6C889.84 337 890.96 337 891.816 337.436C892.569 337.819 893.181 338.431 893.564 339.184C894 340.04 894 341.16 894 343.4V619.6C894 621.84 894 622.96 893.564 623.816C893.181 624.569 892.569 625.181 891.816 625.564C890.96 626 889.84 626 887.6 626H579V337Z" fill="#E9E9E7"/>
</svg>
