<svg width="1871" height="650" viewBox="0 0 1871 650" fill="none" xmlns="http://www.w3.org/2000/svg">
<g>
<rect width="1871" height="650" fill="#F2F2F7"/>
<path d="M1047 540C1047 532.82 1052.82 527 1060 527H1434C1441.18 527 1447 532.82 1447 540V613C1447 620.18 1441.18 626 1434 626H1060C1052.82 626 1047 620.18 1047 613V540Z" fill="#ECEEED"/>
<path d="M623 540C623 532.82 628.82 527 636 527H1010C1017.18 527 1023 532.82 1023 540V613C1023 620.18 1017.18 626 1010 626H636C628.82 626 623 620.18 623 613V540Z" fill="#ECEEED"/>
<rect x="623" y="197" width="229" height="93" rx="46.5" fill="#E9E9E7"/>
<rect x="776" y="362" width="93" height="93" rx="46.5" fill="#E9E9E7"/>
<rect x="574" width="24" height="650" fill="white"/>
<path d="M692 149H2216V173H692V149Z" fill="white"/>
<path d="M957 479H2216V503H957V479Z" fill="white"/>
<path d="M586 521V243.581C586 197.973 622.973 161 668.581 161H804.5C850.063 161 887 197.937 887 243.5V251.5C887 292.645 853.645 326 812.5 326V326C771.355 326 738 359.355 738 400.5V408.5C738 454.063 774.937 491 820.5 491H916" stroke="white" stroke-width="24"/>
<path d="M586 490.5V243.581C586 197.973 622.973 161 668.581 161H804.5C850.063 161 887 197.937 887 243.5V251.5C887 292.645 853.645 326 812.5 326V326C771.355 326 738 359.355 738 400.5V408.5C738 454.063 774.937 491 820.5 491H1304" stroke="#DC0000" stroke-width="8"/>
<path opacity="0.13" d="M947 491C947 524.137 920.137 551 887 551C853.863 551 827 524.137 827 491C827 457.863 853.863 431 887 431C920.137 431 947 457.863 947 491Z" fill="#DC0000"/>
<path opacity="0.13" d="M1364 491C1364 524.137 1337.14 551 1304 551C1270.86 551 1244 524.137 1244 491C1244 457.863 1270.86 431 1304 431C1337.14 431 1364 457.863 1364 491Z" fill="#DC0000"/>
<circle cx="887" cy="491" r="12" fill="black"/>
<path d="M885.961 490.305L886.93 490.32C887.409 490.31 887.779 490.104 888.039 489.703C888.305 489.297 888.417 488.802 888.375 488.219C888.318 487.609 888.049 487.297 887.57 487.281C887.268 487.281 887.016 487.396 886.812 487.625C886.609 487.854 886.474 488.167 886.406 488.562L884.25 488.57C884.323 487.648 884.68 486.898 885.32 486.32C885.961 485.737 886.74 485.451 887.656 485.461C888.578 485.482 889.307 485.781 889.844 486.359C890.38 486.932 890.617 487.698 890.555 488.656C890.477 489.724 889.872 490.57 888.742 491.195C889.148 491.435 889.448 491.771 889.641 492.203C889.833 492.635 889.911 493.151 889.875 493.75C889.828 494.406 889.638 494.997 889.305 495.523C888.977 496.044 888.529 496.451 887.961 496.742C887.393 497.034 886.773 497.172 886.102 497.156C885.211 497.135 884.505 496.826 883.984 496.227C883.469 495.622 883.227 494.839 883.258 493.875L885.414 493.883C885.398 494.315 885.471 494.661 885.633 494.922C885.794 495.177 886.023 495.31 886.32 495.32C886.768 495.331 887.133 495.13 887.414 494.719C887.695 494.307 887.818 493.784 887.781 493.148C887.766 492.836 887.677 492.586 887.516 492.398C887.354 492.211 887.125 492.109 886.828 492.094L885.68 492.086L885.961 490.305Z" fill="white"/>
<path opacity="0.13" d="M947 244C947 277.137 920.137 304 887 304C853.863 304 827 277.137 827 244C827 210.863 853.863 184 887 184C920.137 184 947 210.863 947 244Z" fill="#DC0000"/>
<g>
<rect x="1292" y="479" width="6" height="6" fill="black"/>
<rect x="1292" y="485" width="6" height="6" fill="white"/>
<rect x="1292" y="491" width="6" height="6" fill="black"/>
<rect x="1292" y="497" width="6" height="6" fill="white"/>
<rect x="1298" y="479" width="6" height="6" fill="white"/>
<rect x="1298" y="485" width="6" height="6" fill="black"/>
<rect x="1298" y="491" width="6" height="6" fill="white"/>
<rect x="1298" y="497" width="6" height="6" fill="black"/>
<rect x="1304" y="479" width="6" height="6" fill="black"/>
<rect x="1304" y="485" width="6" height="6" fill="white"/>
<rect x="1304" y="491" width="6" height="6" fill="black"/>
<rect x="1304" y="497" width="6" height="6" fill="white"/>
<rect x="1310" y="479" width="6" height="6" fill="white"/>
<rect x="1310" y="485" width="6" height="6" fill="black"/>
<rect x="1310" y="491" width="6" height="6" fill="white"/>
<rect x="1310" y="497" width="6" height="6" fill="black"/>
</g>
<circle cx="887" cy="244" r="12" fill="black"/>
<path d="M889.5 250H882.984L883.242 248.352L886.75 244.523C887.714 243.461 888.229 242.549 888.297 241.789L888.312 241.375C888.312 241.047 888.25 240.784 888.125 240.586C888 240.388 887.818 240.286 887.578 240.281C886.87 240.266 886.424 240.846 886.242 242.023L886.219 242.203L884.07 242.211C884.122 241.523 884.315 240.888 884.648 240.305C884.982 239.716 885.422 239.26 885.969 238.938C886.516 238.615 887.12 238.456 887.781 238.461C888.708 238.482 889.419 238.784 889.914 239.367C890.409 239.945 890.615 240.706 890.531 241.648C890.484 242.19 890.328 242.724 890.062 243.25C889.797 243.771 889.411 244.323 888.906 244.906L887.836 246.078L886.094 248.164H889.789L889.5 250Z" fill="white"/>
<path d="M1471 540C1471 532.82 1476.82 527 1484 527H1858C1865.18 527 1871 532.82 1871 540V613C1871 620.18 1865.18 626 1858 626H1484C1476.82 626 1471 620.18 1471 613V540Z" fill="#ECEEED"/>
<path d="M236 24H544.6C546.84 24 547.96 24 548.816 24.436C549.569 24.8195 550.181 25.4314 550.564 26.184C551 27.0397 551 28.1598 551 30.4V306.6C551 308.84 551 309.96 550.564 310.816C550.181 311.569 549.569 312.181 548.816 312.564C547.96 313 546.84 313 544.6 313H236V24Z" fill="#E9E9E7"/>
<path d="M623 37C623 29.8203 628.82 24 636 24H1010C1017.18 24 1023 29.8203 1023 37V112C1023 119.18 1017.18 125 1010 125H636C628.82 125 623 119.18 623 112V37Z" fill="#ECEEED"/>
<path d="M1047 37C1047 29.8203 1052.82 24 1060 24H1434C1441.18 24 1447 29.8203 1447 37V112C1447 119.18 1441.18 125 1434 125H1060C1052.82 125 1047 119.18 1047 112V37Z" fill="#ECEEED"/>
<path d="M1471 37C1471 29.8203 1476.82 24 1484 24H1858C1865.18 24 1871 29.8203 1871 37V112C1871 119.18 1865.18 125 1858 125H1484C1476.82 125 1471 119.18 1471 112V37Z" fill="#ECEEED"/>
<path d="M236 337H544.6C546.84 337 547.96 337 548.816 337.436C549.569 337.819 550.181 338.431 550.564 339.184C551 340.04 551 341.16 551 343.4V619.6C551 621.84 551 622.96 550.564 623.816C550.181 624.569 549.569 625.181 548.816 625.564C547.96 626 546.84 626 544.6 626H236V337Z" fill="#E9E9E7"/>
<path opacity="0.13" d="M646 491C646 524.137 619.137 551 586 551C552.863 551 526 524.137 526 491C526 457.863 552.863 431 586 431C619.137 431 646 457.863 646 491Z" fill="#DC0000"/>
<path d="M598 491C598 497.627 592.627 503 586 503C579.373 503 574 497.627 574 491C574 484.373 579.373 479 586 479C592.627 479 598 484.373 598 491Z" fill="black"/>
<path d="M586.633 497H584.469L585.969 488.359L583.719 489.188L584.062 487.258L588.289 485.609H588.555L586.633 497Z" fill="white"/>
</g>
</svg>
