<svg width="359" height="522" viewBox="0 0 359 522" fill="none" xmlns="http://www.w3.org/2000/svg">
<rect width="359" height="522" fill="#F2F2F7"/>
<path d="M275 465C275 460.582 278.582 457 283 457H359V509H283C278.582 509 275 505.418 275 501V465Z" fill="#ECEEED"/>
<path d="M275 199C275 194.582 278.582 191 283 191H359V243H283C278.582 243 275 239.418 275 235V199Z" fill="#ECEEED"/>
<path d="M51.2695 465.166C51.2695 460.747 54.8513 457.166 59.2695 457.166H254.401C258.819 457.166 262.401 460.747 262.401 465.166V501.421C262.401 505.839 258.819 509.421 254.401 509.421H59.2695C54.8513 509.421 51.2695 505.839 51.2695 501.421V465.166Z" fill="#ECEEED"/>
<rect x="50" y="282" width="120" height="50" rx="25" fill="#E9E9E7"/>
<rect x="132.027" y="370.074" width="50" height="50" rx="25" fill="#E9E9E7"/>
<rect x="26" width="12" height="522" fill="white"/>
<path d="M141 257H359V269H141V257Z" fill="white"/>
<path d="M194 263H266C314.049 263 353 301.951 353 350V350C353 398.049 314.049 437 266 437H235.203" stroke="white" stroke-width="12"/>
<path d="M157 432H359V444H157V432Z" fill="white"/>
<path d="M31.7402 452.999V306.569C31.7402 282.496 51.2555 262.98 75.3288 262.98H147.071C171.121 262.98 190.617 282.477 190.617 306.526V310.749C190.617 332.467 173.011 350.072 151.293 350.072V350.072C129.576 350.072 111.97 367.678 111.97 389.395V393.618C111.97 417.668 131.466 437.164 155.516 437.164H205.924" stroke="white" stroke-width="12"/>
<path d="M0 192H0.199999C4.68042 192 6.92063 192 8.63192 192.872C10.1372 193.639 11.3611 194.863 12.1281 196.368C13 198.079 13 200.32 13 204.8V331.2C13 335.68 13 337.921 12.1281 339.632C11.3611 341.137 10.1372 342.361 8.63192 343.128C6.92063 344 4.68042 344 0.199999 344H0V192Z" fill="#E9E9E7"/>
<path d="M50 199C50 194.582 53.5817 191 58 191H254C258.418 191 262 194.582 262 199V237C262 241.418 258.418 245 254 245H58C53.5817 245 50 241.418 50 237V199Z" fill="#ECEEED"/>
<path d="M0 356H0.199999C4.68042 356 6.92063 356 8.63192 356.872C10.1372 357.639 11.3611 358.863 12.1281 360.368C13 362.079 13 364.32 13 368.8V495.2C13 499.68 13 501.921 12.1281 503.632C11.3611 505.137 10.1372 506.361 8.63192 507.128C6.92063 508 4.68042 508 0.199999 508H0V356Z" fill="#E9E9E7"/>
</svg>
