<svg width="40" height="40" viewBox="0 0 40 40" fill="none" xmlns="http://www.w3.org/2000/svg">
<path fill-rule="evenodd" clip-rule="evenodd" d="M0.236897 28.7315C0.870984 26.9717 2.64007 25.8863 4.49622 26.1183C4.56978 26.1275 4.64565 26.1357 4.72385 26.1427C4.33299 25.4773 4.01298 24.7649 3.77429 24.0158C3.65053 23.6273 3.58854 23.2284 3.58555 22.832C2.1431 21.0241 1.28059 18.7335 1.28059 16.2452V16.1556C1.28059 15.5135 1.43453 14.8931 1.71656 14.3397C1.46615 13.4387 1.33186 12.4889 1.33186 11.5073C1.33186 9.58406 1.8457 7.7679 2.75376 6.19944C3.41206 5.06241 4.58675 4.32114 5.89641 4.21635C7.20607 4.11155 8.48369 4.65659 9.31441 5.67448C11.0678 7.82297 13.4079 9.4642 16.0835 10.3514C17.4461 6.08961 21.4417 3 26.1529 3C28.2413 3 30.1934 3.60918 31.8363 4.6589C32.2679 4.48604 32.6796 4.28236 33.0688 4.05045C34.5001 3.19749 36.3102 3.32109 37.6123 4.36069C38.6046 5.15299 39.1434 6.35085 39.1157 7.57736C40.2111 8.93733 40.299 10.8559 39.3232 12.3123C38.5762 13.4274 37.6982 14.4628 36.7082 15.3848C36.1965 25.5338 28.3037 37.0199 14.0521 37.0199C9.55897 37.0199 5.36025 35.6971 1.85064 33.4609C0.273069 32.4557 -0.397191 30.4914 0.236897 28.7315ZM29.6849 8.03082C28.6626 7.37713 27.4504 7 26.1529 7C23.2633 7 20.8053 8.87259 19.9278 11.4687C19.7048 12.1283 19.5839 12.8347 19.5839 13.569C19.5839 14.0812 19.6479 14.5805 19.7504 15.0672C18.3246 14.9969 16.9409 14.7657 15.6167 14.3915C13.3153 13.7412 11.1939 12.6594 9.3449 11.2407C8.18743 10.3525 7.13673 9.33244 6.21546 8.2036C5.65198 9.17687 5.33186 10.3037 5.33186 11.5073C5.33186 11.7263 5.34262 11.9429 5.36363 12.1565C5.40273 12.554 5.47733 12.9411 5.58414 13.3147C5.71597 13.7758 5.89688 14.2163 6.12066 14.6301C6.4252 15.1932 6.80913 15.7068 7.25685 16.1556C7.28691 16.1858 7.31726 16.2156 7.34789 16.2452C7.6268 16.5142 7.92916 16.7587 8.2514 16.9751C7.24351 16.9391 6.29173 16.6783 5.44886 16.2452C5.39227 16.2161 5.33618 16.1863 5.28059 16.1556V16.2452C5.28059 17.286 5.52404 18.2718 5.95684 19.148C6.07164 19.3804 6.19977 19.6051 6.3402 19.8211C6.5948 20.2126 6.88987 20.5755 7.2194 20.9036C7.41646 21.0999 7.62585 21.2837 7.84628 21.4538C8.04011 21.6033 8.24248 21.7423 8.45251 21.8697C8.57082 21.9415 8.69186 22.0098 8.81487 22.0742C8.95246 22.1461 9.09289 22.2133 9.23594 22.2756C9.65145 22.4563 10.0891 22.595 10.5436 22.6862C9.99296 22.8398 9.41673 22.9167 8.81487 22.9167C8.67094 22.9167 8.52851 22.9122 8.38745 22.9033C8.11459 22.8861 7.84723 22.8521 7.58551 22.8014C7.75779 23.3421 7.99865 23.8521 8.29776 24.3214C8.45451 24.5673 8.62763 24.8026 8.81487 25.0246C8.93471 25.1667 9.06049 25.3037 9.19182 25.4351C9.4046 25.648 9.63195 25.8464 9.87222 26.0286C10.2112 26.2857 10.576 26.5106 10.9617 26.6988C11.7978 27.1068 12.7327 27.3425 13.7192 27.3601C13.0185 27.9095 12.2622 28.3895 11.4601 28.7903C10.5056 29.2672 9.48641 29.6318 8.41937 29.8672C7.499 30.0703 6.54305 30.1772 5.56232 30.1772C5.03736 30.1772 4.51228 30.1515 4.00008 30.0874C4.50429 30.4087 5.0256 30.7071 5.56232 30.9807C7.54217 31.9901 9.73166 32.6635 12.0458 32.9124C12.7051 32.9834 13.3745 33.0199 14.0521 33.0199C25.7783 33.0199 32.3481 23.577 32.7182 15.0923L32.7183 15.09C32.7293 14.8382 32.7348 14.5872 32.7348 14.3373C32.7348 14.2136 32.7348 14.0892 32.7337 13.9655C32.7323 13.8077 32.7291 13.6499 32.722 13.4921C32.9347 13.339 33.1427 13.1792 33.3459 13.0131C33.6023 12.8035 33.8509 12.5838 34.0912 12.3549C34.8069 11.673 35.4484 10.9094 36.0001 10.086C34.822 10.6109 33.5544 10.9567 32.2226 11.1231C33.1009 10.6011 33.8452 9.87531 34.3965 9.01166C34.6329 8.64123 34.8339 8.24545 34.9946 7.82951C35.0382 7.71665 35.0789 7.6023 35.1165 7.48657C35.0442 7.52962 34.9715 7.57197 34.8984 7.6136C34.4166 7.88782 33.9154 8.13117 33.3974 8.3423C32.9239 8.53528 32.4365 8.70134 31.9372 8.83943C31.932 8.84086 31.9268 8.84228 31.9216 8.84371C31.6181 8.92726 31.3101 9.0005 30.9982 9.06316C30.9795 9.06692 30.9608 9.07064 30.9421 9.07433C30.568 8.67642 30.1458 8.32552 29.6849 8.03082Z" fill="white"/>
</svg>
