<svg width="52" height="40" viewBox="0 0 52 40" fill="none" xmlns="http://www.w3.org/2000/svg">
<path fill-rule="evenodd" clip-rule="evenodd" d="M19.5 26.2398C19.5 27.7652 21.1391 28.7291 22.4721 27.9876L33.6909 21.7478C35.0613 20.9856 35.0613 19.0144 33.6909 18.2521L22.4721 12.0123C21.1391 11.2709 19.5 12.2347 19.5 13.7601V26.2398ZM23.5 17.1611L28.6041 20L23.5 22.8389V17.1611Z" fill="white"/>
<path fill-rule="evenodd" clip-rule="evenodd" d="M50.9077 32.3652C52 28.3583 52 19.9843 52 19.9843C52 19.9843 52.0158 11.6261 50.9236 7.61913C50.322 5.41217 48.565 3.65913 46.3172 3.06435C42.2648 2 25.9921 2 25.9921 2C25.9921 2 9.73516 2 5.6828 3.08C3.45084 3.67478 1.67793 5.39652 1.07641 7.61913C0 11.6261 0 20 0 20C0 20 0 28.3739 1.09224 32.3809C1.69376 34.5878 3.45084 36.3409 5.69863 36.9356C9.73516 38 25.9921 38 25.9921 38C25.9921 38 42.249 38 46.3013 36.92C48.5333 36.3252 50.3062 34.5722 50.9077 32.3652ZM45.2973 6.93216C46.1677 7.16375 46.8396 7.8463 47.0643 8.67099C47.4838 10.2099 47.7433 12.9047 47.8766 15.5088C47.9401 16.7497 47.9711 17.8745 47.9861 18.6894C47.9936 19.0959 47.997 19.423 47.9986 19.6462C47.9994 19.7577 47.9998 19.843 47.9999 19.8992L48 19.9611L48 19.9749L48 20.0001L47.9998 20.0623C47.9995 20.1186 47.999 20.2042 47.998 20.316C47.996 20.5396 47.9919 20.8675 47.9837 21.2749C47.9673 22.0915 47.9344 23.2187 47.869 24.462C47.7317 27.0704 47.4688 29.7716 47.0485 31.3134C46.8262 32.129 46.1431 32.8226 45.2713 33.0549C44.6721 33.2146 43.2539 33.4007 41.1291 33.5549C39.1163 33.7008 36.768 33.8 34.509 33.8667C32.2563 33.9333 30.1241 33.9666 28.553 33.9834C27.7683 33.9917 27.1254 33.9959 26.6799 33.9979C26.4571 33.999 26.2838 33.9995 26.1669 33.9997L25.8172 33.9997C25.7002 33.9995 25.5268 33.999 25.304 33.998C24.8584 33.9959 24.2155 33.9918 23.4308 33.9836C21.8597 33.9671 19.7276 33.9342 17.4755 33.8687C15.217 33.8029 12.8695 33.7051 10.8579 33.5612C8.73645 33.4094 7.31927 33.2259 6.72007 33.0683C5.84896 32.8371 5.17634 32.1541 4.95143 31.3289C4.53116 29.7871 4.26827 27.0861 4.131 24.4776C4.06557 23.2343 4.0327 22.1071 4.01626 21.2905C4.00805 20.8831 4.00399 20.5553 4.00197 20.3316C4.00096 20.2198 4.00047 20.1342 4.00023 20.0779L4.00002 20.0158L4 20.0004L4.00002 19.9841L4.00023 19.9218C4.00047 19.8654 4.00095 19.7797 4.00194 19.6679C4.00393 19.444 4.00794 19.116 4.01603 18.7083C4.03224 17.8912 4.06466 16.7634 4.12918 15.5193C4.26435 12.9132 4.52325 10.2093 4.93833 8.66105C5.15592 7.86151 5.81686 7.18386 6.71289 6.94509C7.31207 6.7854 8.73024 6.59926 10.8551 6.44515C12.8679 6.29916 15.2161 6.19998 17.4752 6.13326C19.7278 6.06672 21.8601 6.03335 23.4311 6.01665C24.2159 6.00831 24.8587 6.00414 25.3043 6.00207C25.527 6.00103 25.7003 6.00051 25.8173 6.00025L26.1672 6.00025C26.2843 6.0005 26.4578 6.00101 26.6808 6.00204C27.1269 6.00408 27.7705 6.00819 28.5561 6.01641C30.129 6.03287 32.2636 6.06577 34.5187 6.13135C36.7802 6.19712 39.1313 6.29489 41.1468 6.43886C43.2688 6.59043 44.691 6.77369 45.2973 6.93216Z" fill="white"/>
</svg>
