<svg width="24" height="24" viewBox="0 0 24 24" fill="none" xmlns="http://www.w3.org/2000/svg">
<path d="M16.2353 0C20.5236 0 24 3.47638 24 7.76471C24 12.053 20.5236 15.5294 16.2353 15.5294C15.8454 15.5294 15.5294 15.8454 15.5294 16.2353C15.5294 16.5818 15.7791 16.87 16.1084 16.9298L16.2353 16.9412H24V24H16.2353C11.947 24 8.47059 20.5236 8.47059 16.2353C8.47059 11.947 11.947 8.47059 16.2353 8.47059C16.6251 8.47059 16.9412 8.15455 16.9412 7.76471C16.9412 7.41817 16.6915 7.12996 16.3622 7.0702L16.2353 7.05882H7.76471C7.41817 7.05882 7.12996 7.30853 7.0702 7.63782L7.05882 7.76471V24H0V7.76471C0 3.58097 3.30887 0.170062 7.45241 0.00616546L7.76471 0H16.2353Z" fill="#DC0000"/>
</svg>
