<svg width="24" height="24" viewBox="0 0 24 24" fill="none" xmlns="http://www.w3.org/2000/svg">
<path d="M24 12C24 18.6274 18.6274 24 12 24C5.37258 24 0 18.6274 0 12C0 5.37258 5.37258 0 12 0C18.6274 0 24 5.37258 24 12Z" fill="#34C759"/>
<path d="M10.3149 19.5356C10.8794 19.5356 11.3193 19.3198 11.6182 18.8633L19.3545 7.03467C19.5703 6.70264 19.6616 6.39551 19.6616 6.10498C19.6616 5.32471 19.0806 4.76025 18.2837 4.76025C17.7358 4.76025 17.3955 4.95947 17.0635 5.48242L10.2734 16.1904L6.82861 11.9155C6.52148 11.5503 6.18945 11.3843 5.72461 11.3843C4.91943 11.3843 4.33838 11.957 4.33838 12.7373C4.33838 13.0859 4.44629 13.3931 4.74512 13.7334L9.02832 18.9214C9.38525 19.3447 9.78369 19.5356 10.3149 19.5356Z" fill="white"/>
</svg>
