<svg width="16" height="16" viewBox="0 0 16 16" fill="none" xmlns="http://www.w3.org/2000/svg">
<path d="M6.31494 15.5352C6.87939 15.5352 7.31934 15.3193 7.61816 14.8628L15.3545 3.03418C15.5703 2.70215 15.6616 2.39502 15.6616 2.10449C15.6616 1.32422 15.0806 0.759766 14.2837 0.759766C13.7358 0.759766 13.3955 0.958984 13.0635 1.48193L6.27344 12.1899L2.82861 7.91504C2.52148 7.5498 2.18945 7.38379 1.72461 7.38379C0.919434 7.38379 0.338379 7.95654 0.338379 8.73682C0.338379 9.08545 0.446289 9.39258 0.745117 9.73291L5.02832 14.9209C5.38525 15.3442 5.78369 15.5352 6.31494 15.5352Z" fill="white"/>
</svg>
