<svg width="32" height="31" viewBox="0 0 32 31" fill="none" xmlns="http://www.w3.org/2000/svg">
<g style="mix-blend-mode:luminosity">
<path d="M1.5127 29.9733C2.33626 30.7782 3.68392 30.7782 4.47005 29.992L15.9813 18.4808L27.4925 29.992C28.2974 30.7782 29.645 30.7969 30.4499 29.9733C31.2547 29.1685 31.2547 27.8208 30.4686 27.0347L18.9574 15.5047L30.4686 3.99349C31.2547 3.20736 31.2734 1.84098 30.4499 1.05485C29.6263 0.250001 28.2974 0.250001 27.4925 1.03613L15.9813 12.5474L4.47005 1.03613C3.68392 0.250001 2.31755 0.231284 1.5127 1.03613C0.707846 1.8597 0.726564 3.22608 1.5127 3.99349L13.0239 15.5047L1.5127 27.0347C0.726564 27.8021 0.707846 29.1872 1.5127 29.9733Z" fill="black"/>
</g>
</svg>
