<svg width="24" height="24" viewBox="0 0 24 24" fill="none" xmlns="http://www.w3.org/2000/svg">
<path d="M4.09343 24H19.9066C21.271 24 22.2922 23.6611 22.9701 22.9832C23.6567 22.314 24 21.3058 24 19.9587V4.04128C24 2.69419 23.6567 1.68604 22.9701 1.01684C22.2922 0.338946 21.271 0 19.9066 0H4.09343C2.72895 0 1.70342 0.338946 1.01684 1.01684C0.338946 1.68604 0 2.69419 0 4.04128V19.9587C0 21.3058 0.338946 22.314 1.01684 22.9832C1.70342 23.6611 2.72895 24 4.09343 24ZM4.82347 15.5524C4.58881 15.5524 4.39326 15.4742 4.23683 15.3178C4.08039 15.1613 4.00217 14.9701 4.00217 14.7442C4.00217 14.5182 4.08039 14.3313 4.23683 14.1836C4.39326 14.0272 4.58881 13.9489 4.82347 13.9489H17.925C18.151 13.9489 18.3379 14.0272 18.4856 14.1836C18.642 14.3313 18.7203 14.5182 18.7203 14.7442C18.7203 14.9701 18.642 15.1613 18.4856 15.3178C18.3379 15.4742 18.151 15.5524 17.925 15.5524H4.82347ZM4.82347 20.0109C4.58881 20.0109 4.39326 19.937 4.23683 19.7892C4.08039 19.6328 4.00217 19.4416 4.00217 19.2156C4.00217 18.9897 4.08039 18.7985 4.23683 18.642C4.39326 18.4856 4.58881 18.4074 4.82347 18.4074H14.4834C14.7181 18.4074 14.9093 18.4856 15.057 18.642C15.2135 18.7985 15.2917 18.9897 15.2917 19.2156C15.2917 19.4416 15.2135 19.6328 15.057 19.7892C14.9093 19.937 14.7181 20.0109 14.4834 20.0109H4.82347ZM4.13254 4.87561C4.13254 4.46714 4.24986 4.14557 4.48452 3.91092C4.72787 3.66757 5.05812 3.5459 5.47529 3.5459H8.73438C9.15155 3.5459 9.47746 3.66757 9.71211 3.91092C9.95546 4.14557 10.0771 4.46714 10.0771 4.87561V8.16078C10.0771 8.56926 9.95546 8.89517 9.71211 9.13851C9.47746 9.37317 9.15155 9.49049 8.73438 9.49049H5.47529C5.05812 9.49049 4.72787 9.37317 4.48452 9.13851C4.24986 8.89517 4.13254 8.56926 4.13254 8.16078V4.87561Z" fill="#CF2D1E"/>
</svg>
