<svg width="40" height="40" viewBox="0 0 40 40" fill="none" xmlns="http://www.w3.org/2000/svg">
<path fill-rule="evenodd" clip-rule="evenodd" d="M40 20C40 31.0457 31.0457 40 20 40C8.9543 40 0 31.0457 0 20C0 8.9543 8.9543 0 20 0C31.0457 0 40 8.9543 40 20ZM22.0853 35.8653C29.9366 34.8435 36 28.1298 36 20C36 11.1634 28.8366 4 20 4C11.1634 4 4 11.1634 4 20C4 28.1072 10.0298 34.8062 17.8493 35.8567V25.053H14.3V20.7861H17.8493V17.638C17.8493 13.9854 19.9937 12 23.131 12C24.631 12 25.9198 12.1097 26.3 12.1645V15.9927H24.124C22.4127 15.9927 22.0853 16.8263 22.0853 18.0658V20.7861H26.1522L25.624 25.053H22.0853V35.8653Z" fill="white"/>
</svg>
