<svg width="1714" height="1130" viewBox="0 0 1714 1130" fill="none" xmlns="http://www.w3.org/2000/svg">
<path d="M-1912.9 491.662L-1966 962.605L-1660.67 1055.47V862.11C-1660.67 647.654 -1467.67 484.793 -1256.27 520.862L-1160.95 537.125C-982.353 567.597 -857.46 730.624 -874.534 910.997L-890.721 1082H569.534V918.467C569.534 701.066 745.772 524.828 963.174 524.828C1184.14 524.828 1361.82 706.672 1356.71 927.582L1352.76 1098L1678 1068.73L1611.62 936.074L1624.9 664.121L1578.44 584.525C1371.35 372.269 700.072 305.939 403.596 299.306L-41.1184 73.7827C-89.7936 49.4617 -285.379 10.1059 -678.321 47.2507C-1071.26 84.3955 -1399.6 221.92 -1514.65 286.039H-1620.85L-1647.4 239.608L-1873.07 219.709L-1819.97 319.204L-1912.9 491.662Z" fill="black" fill-opacity="0.07" stroke="#E1E1E6" stroke-width="64" stroke-linejoin="round"/>
<path d="M1352 614L1152 610L1181 650H1325.37L1352 614Z" fill="#F2F2F7"/>
<path d="M1511.7 634.223C1391.08 523.528 1131.64 447.285 1017 423L1119.65 428.567C1283.12 437.431 1439.65 497.528 1567.05 600.337L1571 641C1571 641 1519.09 641 1511.7 634.223Z" fill="#F2F2F7"/>
<path d="M206.078 983L198 912.446L463.109 517.048L256.75 474.422V434L574 456.048L206.078 983Z" fill="#F2F2F7"/>
<rect x="-51" y="1021" width="668" height="22" fill="#F2F2F7"/>
<rect x="1298" y="1021" width="416" height="22" fill="#F2F2F7"/>
</svg>
