<svg width="3713" height="1130" viewBox="0 0 3713 1130" fill="none" xmlns="http://www.w3.org/2000/svg">
<path d="M86.1002 491.662L33 962.605L338.326 1055.47V862.11C338.326 647.654 531.326 484.793 742.728 520.862L838.049 537.125C1016.65 567.597 1141.54 730.624 1124.47 910.997L1108.28 1082H2568.53V918.467C2568.53 701.066 2744.77 524.828 2962.17 524.828C3183.14 524.828 3360.82 706.672 3355.71 927.582L3351.76 1098L3677 1068.73L3610.62 936.074L3623.9 664.121L3577.44 584.525C3370.35 372.269 2699.07 305.939 2402.6 299.306L1957.88 73.7827C1909.21 49.4617 1713.62 10.1059 1320.68 47.2507C927.738 84.3955 599.402 221.92 484.352 286.039H378.151L351.601 239.608L125.925 219.709L179.025 319.204L86.1002 491.662Z" fill="black" fill-opacity="0.07" stroke="#E1E1E6" stroke-width="64" stroke-linejoin="round"/>
<path d="M3351 614L3151 610L3180 650H3324.37L3351 614Z" fill="#F2F2F7"/>
<path d="M3510.7 634.223C3390.08 523.528 3130.64 447.285 3016 423L3118.65 428.567C3282.12 437.431 3438.65 497.528 3566.05 600.337L3570 641C3570 641 3518.09 641 3510.7 634.223Z" fill="#F2F2F7"/>
<path d="M2205.08 983L2197 912.446L2462.11 517.048L2255.75 474.422V434L2573 456.048L2205.08 983Z" fill="#F2F2F7"/>
<rect x="1948" y="1021" width="668" height="22" fill="#F2F2F7"/>
<rect x="3297" y="1021" width="416" height="22" fill="#F2F2F7"/>
</svg>
