<svg width="40" height="40" viewBox="0 0 40 40" fill="none" xmlns="http://www.w3.org/2000/svg">
<path fill-rule="evenodd" clip-rule="evenodd" d="M19.2 4C15.7737 4 13.4445 4.00311 11.6442 4.15021C9.89049 4.29348 8.99367 4.55319 8.36808 4.87195C6.86278 5.63893 5.63893 6.86278 4.87195 8.36808C4.55319 8.99367 4.29349 9.89049 4.15021 11.6442C4.00311 13.4445 4 15.7737 4 19.2V20.8C4 24.2263 4.00311 26.5555 4.15021 28.3558C4.29349 30.1095 4.55319 31.0063 4.87195 31.6319C5.63893 33.1372 6.86278 34.3611 8.36808 35.1281C8.99367 35.4468 9.89049 35.7065 11.6442 35.8498C13.4445 35.9969 15.7737 36 19.2 36H20.8C24.2263 36 26.5555 35.9969 28.3558 35.8498C30.1095 35.7065 31.0063 35.4468 31.6319 35.1281C33.1372 34.3611 34.3611 33.1372 35.1281 31.6319C35.4468 31.0063 35.7065 30.1095 35.8498 28.3558C35.9969 26.5555 36 24.2263 36 20.8V19.2C36 15.7737 35.9969 13.4445 35.8498 11.6442C35.7065 9.89049 35.4468 8.99367 35.1281 8.36808C34.3611 6.86278 33.1372 5.63893 31.6319 4.87195C31.0063 4.55319 30.1095 4.29348 28.3558 4.15021C26.5555 4.00311 24.2263 4 20.8 4H19.2ZM1.30792 6.55211C0 9.11906 0 12.4794 0 19.2V20.8C0 27.5206 0 30.8809 1.30792 33.4479C2.4584 35.7058 4.29417 37.5416 6.55211 38.6921C9.11905 40 12.4794 40 19.2 40H20.8C27.5206 40 30.8809 40 33.4479 38.6921C35.7058 37.5416 37.5416 35.7058 38.6921 33.4479C40 30.8809 40 27.5206 40 20.8V19.2C40 12.4794 40 9.11906 38.6921 6.55211C37.5416 4.29417 35.7058 2.4584 33.4479 1.30792C30.8809 -1.58946e-07 27.5206 -1.58946e-07 20.8 -1.58946e-07H19.2C12.4794 -1.58946e-07 9.11905 -1.58946e-07 6.55211 1.30792C4.29417 2.4584 2.4584 4.29417 1.30792 6.55211ZM20 14.0004C16.6863 14.0004 14 16.6867 14 20.0004C14 23.3141 16.6863 26.0004 20 26.0004C23.3137 26.0004 26 23.3141 26 20.0004C26 16.6867 23.3137 14.0004 20 14.0004ZM10 20.0004C10 14.4775 14.4772 10.0004 20 10.0004C25.5228 10.0004 30 14.4775 30 20.0004C30 25.5232 25.5228 30.0004 20 30.0004C14.4772 30.0004 10 25.5232 10 20.0004ZM30.5 13.0004C31.8807 13.0004 33 11.8811 33 10.5004C33 9.11968 31.8807 8.00039 30.5 8.00039C29.1193 8.00039 28 9.11968 28 10.5004C28 11.8811 29.1193 13.0004 30.5 13.0004Z" fill="white"/>
</svg>
