<svg width="1920" height="2253" viewBox="0 0 1920 2253" fill="none" xmlns="http://www.w3.org/2000/svg">
<path fill-rule="evenodd" clip-rule="evenodd" d="M-122 50C-122 22.3858 -99.6142 0 -72 0H1485.69C1664.56 0 1809.56 145.002 1809.56 323.87C1809.56 502.739 1664.56 647.74 1485.69 647.74H434.351C312.725 647.74 214.127 746.338 214.127 867.965C214.127 989.592 312.725 1088.19 434.351 1088.19H1478.13C1651.1 1088.19 1791.32 1228.41 1791.32 1401.38C1791.32 1574.35 1651.1 1714.57 1478.13 1714.57H433.34C312.272 1714.57 214.127 1812.72 214.127 1933.79C214.127 2054.85 312.272 2153 433.34 2153H1984C2011.61 2153 2034 2175.39 2034 2203C2034 2230.61 2011.61 2253 1984 2253H433.34C257.043 2253 114.127 2110.08 114.127 1933.79C114.127 1757.49 257.044 1614.57 433.34 1614.57H1478.13C1595.87 1614.57 1691.32 1519.12 1691.32 1401.38C1691.32 1283.64 1595.87 1188.19 1478.13 1188.19H434.351C257.496 1188.19 114.127 1044.82 114.127 867.965C114.127 691.11 257.496 547.74 434.351 547.74H1485.69C1609.33 547.74 1709.56 447.51 1709.56 323.87C1709.56 200.23 1609.33 100 1485.69 100H-72C-99.6142 100 -122 77.6142 -122 50Z" fill="url(#paint0_linear_16988_35862)"/>
<path d="M-35 49H1489.5C1641.1 49 1764 171.898 1764 323.5V323.5C1764 475.102 1641.1 598 1489.5 598H412.5" stroke="#8A8A8F" stroke-width="24" stroke-linecap="round"/>
<path d="M398.893 641.208C399.154 641.136 399.699 640.938 399.975 640.753L400.516 640.345L397.438 634.867L419.091 629.016C419.513 628.902 419.939 628.791 420.367 628.68C421.221 628.457 422.083 628.238 422.953 628.025C424.226 627.713 425.517 627.41 426.814 627.117C426.883 627.101 426.953 627.087 427.023 627.072C429.642 626.48 432.297 625.92 434.946 625.376C438.531 624.641 442.098 623.934 445.552 623.214C448.112 622.68 450.609 622.136 452.995 621.57C454.634 621.182 456.22 620.786 457.743 620.369C458.491 620.164 459.226 619.955 459.941 619.742C460.656 619.528 461.38 619.294 462.11 619.046C462.474 618.922 462.838 618.796 463.205 618.665C464.303 618.271 465.411 617.842 466.51 617.395C466.512 617.395 466.514 617.394 466.516 617.394C467.249 617.096 467.975 616.788 468.699 616.474C469.423 616.161 470.144 615.842 470.851 615.52C471.556 615.198 472.252 614.87 472.932 614.546C472.934 614.545 472.936 614.545 472.938 614.544C473.279 614.382 473.609 614.223 473.942 614.061C474.94 613.576 475.903 613.094 476.814 612.629C476.816 612.628 476.818 612.628 476.819 612.627C477.427 612.316 478.011 612.014 478.57 611.719C479.689 611.13 480.705 610.58 481.583 610.096C482.899 609.369 483.907 608.784 484.504 608.436C484.902 608.204 485.117 608.074 485.117 608.074L487.328 606.824C487.474 606.741 487.606 606.628 487.726 606.487C487.767 606.439 487.805 606.39 487.842 606.336C487.99 606.124 488.116 605.864 488.222 605.56C488.222 605.558 488.22 605.556 488.22 605.555C488.273 605.403 488.326 605.239 488.368 605.066C488.369 605.064 488.367 605.062 488.367 605.061C488.409 604.887 488.448 604.703 488.481 604.509C488.481 604.508 488.479 604.506 488.48 604.504C488.743 602.941 488.702 600.738 488.443 598.162C488.443 598.16 488.442 598.159 488.442 598.157C488.438 598.117 488.43 598.075 488.426 598.035C488.368 597.466 488.3 596.876 488.222 596.275C488.217 596.234 488.213 596.195 488.207 596.153C488.117 595.468 488.012 594.767 487.899 594.049C487.899 594.047 487.898 594.046 487.898 594.044C487.841 593.686 487.784 593.321 487.723 592.956C487.722 592.955 487.721 592.953 487.721 592.951C487.66 592.586 487.597 592.222 487.531 591.851C487.531 591.85 487.53 591.848 487.53 591.846C487.397 591.103 487.255 590.351 487.106 589.592C487.106 589.59 487.105 589.589 487.105 589.587C486.656 587.307 486.139 584.972 485.591 582.703C485.591 582.701 485.59 582.7 485.59 582.698C485.224 581.184 484.846 579.703 484.465 578.28C484.422 578.122 484.374 577.96 484.33 577.801C484.288 577.642 484.249 577.477 484.207 577.319C483.826 575.897 483.413 574.424 482.973 572.931C482.972 572.929 482.972 572.927 482.972 572.926C482.312 570.687 481.592 568.406 480.84 566.207C480.84 566.206 480.839 566.204 480.839 566.202C480.589 565.471 480.335 564.748 480.079 564.038C480.078 564.037 480.078 564.035 480.077 564.033C479.949 563.679 479.821 563.332 479.692 562.986C479.691 562.984 479.691 562.982 479.691 562.98C479.561 562.634 479.429 562.289 479.298 561.951C479.298 561.949 479.298 561.948 479.297 561.946C479.036 561.268 478.776 560.608 478.512 559.97C478.496 559.931 478.48 559.895 478.464 559.856C478.231 559.297 477.994 558.752 477.761 558.23C477.744 558.194 477.73 558.154 477.713 558.117C477.712 558.116 477.712 558.114 477.712 558.112C476.648 555.751 475.582 553.823 474.572 552.601C474.571 552.6 474.572 552.597 474.571 552.596C474.446 552.445 474.32 552.305 474.197 552.176C474.196 552.175 474.196 552.172 474.195 552.17C474.072 552.042 473.944 551.926 473.823 551.821C473.821 551.82 473.822 551.817 473.821 551.816C473.578 551.605 473.339 551.443 473.105 551.334C473.045 551.306 472.987 551.282 472.928 551.26C472.754 551.198 472.583 551.167 472.415 551.168L469.875 551.191C469.875 551.191 469.624 551.186 469.164 551.184C468.472 551.181 467.307 551.178 465.804 551.207C464.801 551.227 463.647 551.258 462.383 551.307C461.751 551.332 461.095 551.362 460.413 551.397C460.411 551.397 460.409 551.398 460.407 551.398C459.386 551.45 458.311 551.515 457.204 551.593C456.834 551.62 456.469 551.648 456.093 551.677C456.091 551.678 456.089 551.679 456.087 551.679C455.336 551.738 454.569 551.802 453.797 551.876C453.024 551.95 452.241 552.034 451.457 552.125C450.673 552.216 449.89 552.312 449.106 552.42C449.104 552.421 449.102 552.422 449.101 552.422C447.926 552.585 446.751 552.767 445.604 552.975C445.22 553.045 444.842 553.118 444.464 553.193C443.709 553.343 442.965 553.502 442.239 553.674C441.513 553.847 440.772 554.033 440.021 554.23C438.494 554.63 436.923 555.081 435.309 555.564C432.959 556.267 430.525 557.045 428.041 557.862C424.69 558.965 421.247 560.137 417.775 561.292C415.209 562.146 412.63 562.988 410.065 563.786C409.997 563.807 409.93 563.83 409.862 563.851C408.592 564.245 407.322 564.628 406.064 564.995C405.205 565.245 404.348 565.487 403.497 565.721C403.071 565.838 402.647 565.955 402.224 566.068L380.546 571.827L380.473 565.544L379.8 565.461C379.469 565.439 378.898 565.54 378.636 565.608C378.489 565.647 378.335 565.702 378.18 565.774C378.129 565.798 378.078 565.826 378.027 565.854C377.978 565.88 377.924 565.909 377.876 565.938C377.775 565.999 377.675 566.066 377.58 566.138C377.299 566.352 377.052 566.618 376.896 566.902C376.894 566.904 376.893 566.907 376.891 566.909C376.814 567.052 376.762 567.198 376.737 567.35L376 573.04L356.906 578.112C356.76 578.085 356.617 578.059 356.472 578.036C355.894 577.946 355.333 577.886 354.779 577.854C354.502 577.838 354.229 577.83 353.957 577.828C353.006 577.818 352.077 577.884 351.152 578.01C350.623 578.081 350.093 578.172 349.561 578.277C349.295 578.33 349.026 578.389 348.758 578.448C348.221 578.568 347.683 578.699 347.13 578.84C346.025 579.124 344.877 579.444 343.659 579.771C341.852 580.255 340.154 580.803 338.558 581.411C337.919 581.655 337.297 581.907 336.691 582.169C335.48 582.694 334.336 583.26 333.254 583.857C332.984 584.007 332.714 584.16 332.452 584.314C331.664 584.775 330.916 585.256 330.199 585.756C329.96 585.923 329.722 586.087 329.49 586.258C329.028 586.6 328.581 586.95 328.15 587.308C327.934 587.487 327.719 587.669 327.511 587.852C327.094 588.218 326.692 588.594 326.306 588.975C326.112 589.165 325.926 589.36 325.74 589.554C324.811 590.526 323.972 591.54 323.225 592.601C322.628 593.448 322.086 594.323 321.602 595.223C321.601 595.224 321.604 595.227 321.603 595.228C321.483 595.452 321.363 595.677 321.25 595.904C321.249 595.905 321.252 595.907 321.251 595.909C321.137 596.136 321.024 596.365 320.918 596.595C320.917 596.597 320.92 596.599 320.919 596.6C320.597 597.293 320.304 597.996 320.044 598.715C320.043 598.716 320.046 598.719 320.045 598.72C319.958 598.959 319.87 599.199 319.79 599.44C319.79 599.442 319.792 599.444 319.792 599.446C319.551 600.173 319.335 600.91 319.153 601.661C319.153 601.663 319.155 601.665 319.154 601.666C319.094 601.915 319.038 602.167 318.984 602.419C318.984 602.42 318.986 602.422 318.985 602.424C318.931 602.676 318.876 602.93 318.829 603.184C318.828 603.186 318.83 603.188 318.83 603.189C318.735 603.699 318.65 604.211 318.58 604.73C318.58 604.732 318.582 604.734 318.581 604.735C318.547 604.994 318.517 605.256 318.488 605.517C318.488 605.518 318.49 605.52 318.49 605.522C318.461 605.783 318.433 606.047 318.41 606.31C318.388 606.574 318.366 606.839 318.35 607.105C318.35 607.106 318.352 607.108 318.351 607.11C318.335 607.375 318.32 607.643 318.31 607.91C318.31 607.912 318.312 607.914 318.311 607.915C318.301 608.183 318.293 608.452 318.289 608.722C318.289 608.723 318.291 608.725 318.29 608.727C318.278 609.539 318.287 610.36 318.328 611.188L318.33 611.193C318.342 611.469 318.364 611.746 318.383 612.023L318.384 612.028C318.521 613.977 318.795 615.963 319.206 617.985C319.207 617.986 319.209 617.988 319.208 617.99C319.268 618.277 319.331 618.566 319.393 618.855C319.394 618.857 319.394 618.859 319.395 618.861C319.524 619.439 319.66 620.018 319.809 620.602C319.809 620.604 319.81 620.605 319.81 620.607C319.887 620.899 319.966 621.193 320.046 621.487C320.074 621.591 320.107 621.693 320.135 621.797C320.161 621.901 320.185 622.007 320.213 622.111C320.29 622.405 320.369 622.699 320.449 622.99C320.449 622.992 320.45 622.994 320.45 622.995C320.613 623.575 320.784 624.145 320.962 624.71C320.962 624.712 320.963 624.714 320.963 624.716C321.054 624.997 321.144 625.279 321.236 625.558C321.238 625.559 321.237 625.561 321.237 625.563C321.892 627.52 322.648 629.377 323.503 631.133L323.505 631.138C323.627 631.387 323.747 631.638 323.874 631.883L323.875 631.888C324.254 632.626 324.656 633.342 325.073 634.039C325.074 634.04 325.073 634.042 325.074 634.044C325.213 634.275 325.354 634.504 325.497 634.731C325.498 634.733 325.497 634.735 325.498 634.736C325.641 634.963 325.787 635.187 325.934 635.409C325.935 635.41 325.934 635.412 325.935 635.414C326.082 635.635 326.234 635.855 326.385 636.071C326.536 636.288 326.693 636.503 326.848 636.715C326.849 636.716 326.848 636.718 326.849 636.72C327.005 636.932 327.161 637.143 327.32 637.35C327.321 637.351 327.321 637.354 327.322 637.355C327.642 637.77 327.971 638.171 328.309 638.565C328.31 638.566 328.309 638.569 328.31 638.57C328.478 638.766 328.653 638.959 328.826 639.15C328.827 639.151 328.826 639.154 328.827 639.155C329 639.346 329.174 639.536 329.351 639.721C329.352 639.723 329.352 639.725 329.353 639.726C329.885 640.286 330.442 640.816 331.014 641.326C331.015 641.327 331.014 641.33 331.015 641.331C331.205 641.5 331.401 641.664 331.596 641.827C331.597 641.828 331.596 641.832 331.597 641.833C332.182 642.325 332.787 642.787 333.412 643.226C333.413 643.227 333.413 643.231 333.414 643.231C333.621 643.377 333.834 643.519 334.046 643.659C334.047 643.66 334.046 643.664 334.047 643.664C334.259 643.804 334.475 643.939 334.691 644.073C334.692 644.073 334.692 644.077 334.693 644.078C335.562 644.615 336.469 645.101 337.409 645.537C338.586 646.082 339.82 646.541 341.111 646.918C341.369 646.994 341.628 647.068 341.89 647.137C342.416 647.274 342.951 647.399 343.495 647.507C343.767 647.561 344.044 647.611 344.321 647.658C344.873 647.752 345.435 647.833 346.007 647.897C346.292 647.93 346.581 647.953 346.871 647.978C347.742 648.052 348.631 648.094 349.544 648.1C349.848 648.102 350.157 648.1 350.466 648.094C351.702 648.071 352.975 647.989 354.287 647.838C354.943 647.762 355.608 647.669 356.282 647.561C357.97 647.29 359.713 646.916 361.52 646.432C362.739 646.105 363.893 645.809 364.992 645.501C365.541 645.348 366.073 645.192 366.597 645.027C366.86 644.945 367.122 644.862 367.378 644.774C367.892 644.599 368.396 644.413 368.89 644.21C369.754 643.856 370.592 643.449 371.411 642.965C371.645 642.826 371.877 642.683 372.109 642.531C372.573 642.227 373.029 641.894 373.485 641.527C373.598 641.435 373.709 641.34 373.822 641.244L392.894 636.09L396.377 640.649C396.475 640.768 396.593 640.869 396.732 640.954C396.734 640.955 396.736 640.956 396.738 640.957C397.015 641.125 397.363 641.232 397.714 641.277C397.831 641.292 397.952 641.3 398.069 641.302C398.126 641.303 398.187 641.301 398.243 641.3C398.301 641.298 398.359 641.297 398.415 641.292C398.585 641.277 398.746 641.248 398.893 641.208Z" fill="#CF2D1E" stroke="#EFEFF1" stroke-width="6"/>
<path d="M398.893 641.208C399.154 641.136 399.699 640.938 399.975 640.753L400.516 640.345L397.442 634.883L419.095 629.031C432.62 625.378 448.504 623.169 459.944 619.752C471.384 616.335 485.122 608.095 485.122 608.095L487.332 606.84C490.442 605.078 487.527 589.711 484.484 578.352C484.435 578.17 484.38 577.985 484.33 577.801C484.282 577.617 484.237 577.43 484.188 577.248C481.144 565.889 475.985 551.124 472.411 551.152L469.869 551.17C469.869 551.17 453.852 550.903 442.236 553.664C430.62 556.425 415.76 562.453 402.219 566.052L380.542 571.811L380.473 565.543L379.8 565.461C379.469 565.439 378.898 565.54 378.636 565.608C378.489 565.647 378.335 565.702 378.18 565.774C378.129 565.798 378.078 565.826 378.027 565.854C377.978 565.88 377.924 565.909 377.876 565.938C377.775 565.999 377.675 566.066 377.58 566.138C377.299 566.352 377.05 566.614 376.894 566.897C376.893 566.899 376.891 566.901 376.89 566.904C376.812 567.047 376.761 567.193 376.735 567.345L375.995 573.024L356.902 578.097C352.229 577.254 348.532 578.459 343.657 579.765C320.528 585.963 314.885 602.661 320.027 621.415C320.061 621.543 320.099 621.67 320.135 621.797C320.167 621.925 320.198 622.054 320.232 622.182C325.156 640.995 338.392 652.634 361.522 646.437C366.396 645.131 370.201 644.326 373.826 641.26L392.898 636.106L396.378 640.654C396.476 640.773 396.594 640.874 396.733 640.959C396.735 640.96 396.738 640.961 396.74 640.963C397.017 641.13 397.363 641.232 397.714 641.277C397.831 641.292 397.952 641.3 398.069 641.302C398.126 641.303 398.187 641.302 398.243 641.3C398.301 641.298 398.359 641.297 398.415 641.292C398.585 641.277 398.746 641.248 398.893 641.208Z" fill="#CF2D1E"/>
<path opacity="0.9" d="M419.525 572.271C425.316 570.719 430.782 568.939 435.76 567.033C429.17 560.255 417.425 566.638 398.696 571.434C390.046 573.649 383.071 575.291 377.497 576.698C386.706 578.323 402.383 576.864 419.525 572.271Z" fill="#CF2D1E"/>
<path d="M321.099 609.945L322.442 609.422C328.123 607.21 330.898 600.026 329.371 592.598L328.984 590.746L327.89 592.368C324.581 597.284 322.432 602.753 321.349 608.6L321.099 609.945Z" fill="#F2F2F3"/>
<path d="M339.646 600.233L340.313 599.643C340.091 599.5 339.895 599.329 339.733 599.124C338.386 597.43 340.314 593.841 342.829 592.019C342.909 591.961 343.106 591.797 343.347 591.59L341.152 592.858C338.519 595.047 337.396 597.912 338.651 599.491C338.908 599.815 339.246 600.062 339.646 600.233Z" fill="#CF2D1E"/>
<path d="M338.351 601.362L339.019 600.772C338.796 600.629 338.601 600.458 338.438 600.253C337.091 598.559 339.02 594.97 341.534 593.148C341.615 593.09 341.812 592.926 342.053 592.719L339.858 593.987C337.224 596.175 336.101 599.041 337.356 600.62C337.613 600.943 337.951 601.191 338.351 601.362Z" fill="#CF2D1E"/>
<path d="M337.339 601.881L338.007 601.291C337.784 601.148 337.589 600.977 337.426 600.773C336.079 599.079 338.008 595.489 340.522 593.668C340.603 593.609 340.8 593.446 341.041 593.238L338.846 594.506C336.213 596.695 335.089 599.561 336.344 601.139C336.601 601.463 336.939 601.711 337.339 601.881Z" fill="#CF2D1E"/>
<path d="M334.592 603.368L335.585 602.779C335.344 602.543 335.143 602.278 334.993 601.978C333.749 599.5 337.128 595.393 340.774 593.677C341.335 593.413 345.412 590.93 345.97 590.74L345.789 590.065L339.129 593.981C334.807 596.103 332.311 599.745 333.537 602.187C333.775 602.661 334.134 603.055 334.592 603.368Z" fill="#CF2D1E"/>
<path d="M334.592 603.368L335.585 602.779C335.344 602.543 335.143 602.278 334.993 601.978C333.749 599.5 337.128 595.393 340.774 593.677C341.335 593.413 345.412 590.93 345.97 590.74L345.789 590.065L339.129 593.981C334.807 596.103 332.311 599.745 333.537 602.187C333.775 602.661 334.134 603.055 334.592 603.368Z" fill="#CF2D1E"/>
<path d="M341.673 598.879L342.27 598.352C342.071 598.224 341.896 598.072 341.751 597.889C340.548 596.375 342.27 593.169 344.516 591.542C344.588 591.49 344.765 591.344 344.98 591.158L343.019 592.291C340.667 594.246 339.663 596.806 340.784 598.216C341.014 598.505 341.316 598.727 341.673 598.879Z" fill="#CF2D1E"/>
<path d="M343.913 597.654L344.51 597.127C344.311 596.999 344.136 596.847 343.991 596.664C342.788 595.151 344.51 591.944 346.757 590.317C346.829 590.265 347.005 590.119 347.22 589.933L345.259 591.066C342.907 593.021 341.903 595.582 343.024 596.992C343.254 597.281 343.556 597.502 343.913 597.654Z" fill="#CF2D1E"/>
<path d="M448.943 566.058C447.592 566.775 446.32 567.02 445.253 566.032L444.901 562.988C445.823 561.658 447.07 561.538 448.474 562.003L448.943 566.058Z" fill="#CF2D1E"/>
<path d="M445.28 566.465C443.918 567.042 442.672 567.264 441.768 566.44L441.433 563.542C442.428 562.754 443.458 562.086 444.834 562.605L445.28 566.465Z" fill="#CF2D1E"/>
<path d="M454.666 606.324L467.615 600.668C472.137 598.692 473.973 590.41 471.871 581.139C469.056 572.06 463.325 565.805 458.421 566.355L444.379 567.931C442.071 568.55 440.682 570.799 441.265 572.975L449.448 603.513C450.031 605.689 452.358 606.943 454.666 606.324Z" fill="#F0F0F2"/>
<path d="M381.273 631.991C381.788 631.853 382.281 631.662 382.754 631.424C382.757 631.425 382.759 631.426 382.761 631.427L393.303 626.443C396.091 624.538 398.232 622.619 397.455 619.719L388.135 584.936C387.357 582.035 384.544 581.444 381.177 581.188L369.555 582.142C369.554 582.145 369.553 582.147 369.551 582.149C369.022 582.179 368.5 582.261 367.985 582.399C360.105 584.51 356.232 595.608 360.341 611.023C364.49 626.427 373.393 634.102 381.273 631.991Z" fill="#F2F2F3"/>
<path opacity="0.9" d="M430.972 614.994C436.764 613.442 442.387 612.251 447.652 611.412C445.333 620.577 431.97 620.922 413.353 626.133C404.754 628.539 397.892 630.605 392.362 632.174C399.525 626.162 413.831 619.587 430.972 614.994Z" fill="#CF2D1E"/>
<path d="M329.283 633.022L330.623 632.816C336.292 631.946 341.934 636.495 344.184 643.266L344.74 644.957L343.085 644.149C338.076 641.7 333.752 638.255 330.119 634.001L329.283 633.022Z" fill="#F2F2F3"/>
<path d="M347.814 630.717L348.687 630.894C348.566 631.13 348.482 631.375 348.443 631.634C348.124 633.774 351.588 635.919 354.677 636.239C354.776 636.249 355.028 636.292 355.341 636.352L352.806 636.351C349.431 635.772 347.025 633.852 347.323 631.857C347.384 631.449 347.552 631.065 347.814 630.717Z" fill="#CF2D1E"/>
<path d="M346.128 630.385L347.001 630.562C346.88 630.798 346.796 631.043 346.757 631.302C346.438 633.442 349.903 635.587 352.991 635.907C353.09 635.917 353.343 635.96 353.655 636.02L351.12 636.019C347.745 635.44 345.34 633.52 345.637 631.525C345.698 631.117 345.867 630.733 346.128 630.385Z" fill="#CF2D1E"/>
<path d="M344.992 630.442L345.865 630.619C345.744 630.854 345.66 631.1 345.622 631.358C345.302 633.499 348.767 635.643 351.855 635.964C351.954 635.974 352.207 636.017 352.519 636.076L349.984 636.076C346.61 635.497 344.204 633.576 344.501 631.582C344.562 631.173 344.731 630.79 344.992 630.442Z" fill="#CF2D1E"/>
<path d="M341.87 630.529L343.025 630.543C342.933 630.868 342.893 631.198 342.912 631.533C343.074 634.301 348.054 636.168 352.07 635.831C352.687 635.779 357.459 635.891 358.038 635.776L358.218 636.451L350.493 636.391C345.689 636.714 341.706 634.808 341.547 632.079C341.516 631.551 341.63 631.029 341.87 630.529Z" fill="#CF2D1E"/>
<path d="M341.87 630.529L343.025 630.543C342.933 630.868 342.893 631.198 342.912 631.533C343.074 634.301 348.054 636.168 352.07 635.831C352.687 635.779 357.459 635.891 358.038 635.776L358.218 636.451L350.493 636.391C345.689 636.714 341.706 634.808 341.547 632.079C341.516 631.551 341.63 631.029 341.87 630.529Z" fill="#CF2D1E"/>
<path d="M350.246 630.875L351.026 631.033C350.918 631.243 350.843 631.463 350.809 631.694C350.524 633.606 353.619 635.521 356.377 635.808C356.466 635.817 356.691 635.855 356.97 635.908L354.706 635.908C351.691 635.391 349.542 633.675 349.808 631.893C349.862 631.528 350.013 631.186 350.246 630.875Z" fill="#CF2D1E"/>
<path d="M352.8 630.818L353.58 630.977C353.472 631.187 353.396 631.406 353.362 631.637C353.077 633.549 356.172 635.465 358.931 635.751C359.019 635.76 359.245 635.799 359.524 635.852L357.259 635.851C354.244 635.334 352.095 633.618 352.361 631.837C352.416 631.472 352.566 631.129 352.8 630.818Z" fill="#CF2D1E"/>
<path d="M459.556 605.666C458.028 605.72 456.803 606.144 456.373 607.534L457.591 610.346C459.055 611.037 460.195 610.517 461.178 609.412L459.556 605.666Z" fill="#CF2D1E"/>
<path d="M456.18 607.144C454.712 607.325 453.522 607.756 453.15 608.922L454.309 611.599C455.565 611.784 456.791 611.847 457.723 610.71L456.18 607.144Z" fill="#CF2D1E"/>
<defs>
<linearGradient id="paint0_linear_16988_35862" x1="-5.99061" y1="-541.226" x2="2725.34" y2="865.603" gradientUnits="userSpaceOnUse">
<stop stop-color="#D1D1D5" stop-opacity="0"/>
<stop offset="1" stop-color="#D1D1D5"/>
</linearGradient>
</defs>
</svg>
