<svg width="24" height="26" viewBox="0 0 24 26" fill="none" xmlns="http://www.w3.org/2000/svg">
<path fill-rule="evenodd" clip-rule="evenodd" d="M13.7969 8.39879C13.5492 10.0149 14.9225 11.3871 16.5405 11.1396C17.5488 10.9852 18.3722 10.162 18.5267 9.15512C18.7744 7.53854 17.401 6.16634 15.7835 6.41382C14.7753 6.56817 13.9513 7.39139 13.7969 8.39879ZM23.6149 3.9171e-05C23.7313 -0.00201886 23.8281 0.0772154 23.8482 0.191436C24.0613 1.37789 24.8698 7.92655 18.5833 15.5516C17.9257 16.349 17.1945 17.0344 16.4354 17.6255C16.367 17.6785 16.335 17.7614 16.352 17.8463C16.576 18.9643 16.852 21.2117 15.8211 22.5056C13.6933 25.1759 10.5933 25.8463 9.60308 25.9971C9.44138 26.0218 9.30235 25.8854 9.31934 25.7229C9.31934 25.7229 9.74211 21.633 9.82862 20.7563C9.83686 20.673 9.7658 20.6035 9.68238 20.6153C9.19575 20.6817 8.45422 20.7702 8.24876 20.7224C7.9367 20.6493 5.60861 18.7178 5.48553 18.4215C5.40366 18.2255 5.38048 17.4938 5.3743 17.0215C5.37327 16.9454 5.30067 16.8908 5.22703 16.9104L0.272689 18.2157C0.135713 18.2517 0.00182557 18.1519 0.00028072 18.0104C-0.00795849 17.0622 0.150131 13.8403 2.50037 11.2919C3.65231 10.0432 6.00563 10.0016 7.11329 10.0582C7.1998 10.0628 7.27704 10.0185 7.31979 9.9429C7.8404 9.01936 8.4846 8.11383 9.28123 7.29062C15.8783 0.475959 22.4166 0.024221 23.6149 3.9171e-05ZM7.07949 21.6718C7.26356 21.4716 7.37496 21.3504 7.6767 21.4207C8.05673 21.5098 7.89864 22.581 7.18595 23.3949C6.75854 23.8837 6.13648 24.2701 5.46704 24.4414C3.9809 24.8211 2.60752 24.5937 2.60752 24.5937C2.60752 24.5937 2.17342 23.2658 2.32121 21.7403C2.38764 21.0534 2.67395 20.3794 3.09106 19.8824C3.78676 19.0535 4.82233 18.733 4.96857 19.0941C5.08382 19.3792 4.97921 19.5042 4.80727 19.7097C4.62042 19.9331 4.35405 20.2515 4.20387 20.9736C4.00838 21.9124 4.2656 22.4013 4.32864 22.5211C4.33767 22.5382 4.34272 22.5478 4.34188 22.5501C4.34341 22.5494 4.35131 22.5522 4.36553 22.5575C4.47985 22.5993 5.00291 22.791 5.91659 22.4482C6.60232 22.1908 6.88251 21.886 7.07949 21.6718Z" fill="#CF2D1E"/>
</svg>
