<svg width="298" height="100" viewBox="0 0 298 100" fill="none" xmlns="http://www.w3.org/2000/svg">
<rect width="298" height="100" rx="24" fill="#CF2D1E"/>
<path fill-rule="evenodd" clip-rule="evenodd" d="M214.333 59.3722V49.6204C214.333 48.2225 214.607 46.8349 215.139 45.5423L218.708 36.875L214.379 34.1202C213.44 33.5223 213.692 32.0869 214.779 31.8454L217.993 31.1311C221.377 30.3793 224.832 30 228.298 30H236.429C245.21 30 253.348 34.6075 257.866 42.1376L258.083 42.5L262.974 43.7228C269.019 45.2339 273.431 50.425 273.949 56.6341L274.143 58.9657C274.251 60.2569 275.33 61.25 276.626 61.25H277.458C278.494 61.25 279.333 62.0895 279.333 63.125C279.333 64.1605 278.494 65 277.458 65H271.833V61.25C271.833 55.0368 266.797 50 260.583 50C254.816 50 250.062 54.3402 249.41 59.9327C249.384 59.955 249.359 59.9774 249.333 60H239.333L239.301 59.9711L239.257 59.9327C238.605 54.3402 233.851 50 228.083 50C221.87 50 216.833 55.0368 216.833 61.25V65H210.583V63.125C210.583 62.0895 211.423 61.25 212.458 61.25C213.494 61.25 214.333 60.4078 214.333 59.3722ZM236.67 35C235.38 35 234.333 36.0463 234.333 37.337V45.3365C234.333 46.5314 235.302 47.5 236.497 47.5H251.833C251.833 40.5964 246.237 35 239.333 35H236.67Z" fill="white"/>
<circle cx="228.083" cy="61.25" r="7.5" stroke="white" stroke-width="2.5"/>
<circle cx="260.583" cy="61.25" r="7.5" stroke="white" stroke-width="2.5"/>
<rect x="239.333" y="62.5" width="10" height="2.5" fill="white"/>
<path fill-rule="evenodd" clip-rule="evenodd" d="M214.333 49.6204V59.3722C214.333 60.4078 213.494 61.25 212.458 61.25C211.423 61.25 210.583 62.0895 210.583 63.125V65H216.833V61.25C216.833 55.0368 221.87 50 228.083 50C233.851 50 238.605 54.3402 239.257 59.9327L239.333 60H249.333L249.41 59.9327C250.062 54.3402 254.816 50 260.583 50C266.797 50 271.833 55.0368 271.833 61.25V65H277.458C278.494 65 279.333 64.1605 279.333 63.125C279.333 62.0895 278.494 61.25 277.458 61.25H276.626C275.33 61.25 274.251 60.2569 274.143 58.9657L273.949 56.6341C273.431 50.425 269.019 45.2339 262.974 43.7228L258.083 42.5L257.866 42.1376C253.348 34.6075 245.21 30 236.429 30H228.298C224.832 30 221.377 30.3793 217.993 31.1311L214.779 31.8454C213.692 32.0869 213.44 33.5223 214.379 34.1202L218.708 36.875L215.139 45.5423C214.607 46.8349 214.333 48.2225 214.333 49.6204ZM234.333 37.337C234.333 36.0463 235.38 35 236.67 35H239.333C246.237 35 251.833 40.5964 251.833 47.5H236.497C235.302 47.5 234.333 46.5314 234.333 45.3365V37.337Z" fill="white"/>
<path fill-rule="evenodd" clip-rule="evenodd" d="M236.833 61.25C236.833 66.0825 232.916 70 228.083 70C223.251 70 219.333 66.0825 219.333 61.25C219.333 56.4175 223.251 52.5 228.083 52.5C232.916 52.5 236.833 56.4175 236.833 61.25ZM234.333 61.25C234.333 64.7018 231.535 67.5 228.083 67.5C224.632 67.5 221.833 64.7018 221.833 61.25C221.833 57.7982 224.632 55 228.083 55C231.535 55 234.333 57.7982 234.333 61.25Z" fill="white"/>
<path fill-rule="evenodd" clip-rule="evenodd" d="M260.583 70C265.416 70 269.333 66.0825 269.333 61.25C269.333 56.4175 265.416 52.5 260.583 52.5C255.751 52.5 251.833 56.4175 251.833 61.25C251.833 66.0825 255.751 70 260.583 70ZM260.583 67.5C264.035 67.5 266.833 64.7018 266.833 61.25C266.833 57.7982 264.035 55 260.583 55C257.132 55 254.333 57.7982 254.333 61.25C254.333 64.7018 257.132 67.5 260.583 67.5Z" fill="white"/>
<path d="M249.333 62.5H239.333V65H249.333V62.5Z" fill="white"/>
<g clip-path="url(#clip0_16557_35769)">
<path d="M114.24 29.6452L122.171 57.3068C123.646 62.4521 128.365 65.9994 133.735 65.9994C139.345 65.9994 144.21 62.1346 145.46 56.6848L151.718 29.401L142.51 27.3038L136.252 54.5876C135.984 55.7578 134.94 56.5877 133.735 56.5877C132.582 56.5877 131.569 55.826 131.252 54.7212L123.321 27.0596L114.24 29.6452Z" fill="white"/>
<path d="M160.336 43.4112C159.815 43.4112 159.392 43.8326 159.392 44.3524C159.392 44.8722 159.815 45.2935 160.336 45.2935H171.67C177.408 45.2935 182.059 49.9287 182.059 55.6465C182.059 61.3643 177.408 65.9994 171.67 65.9994H149.947V56.5877H171.67C172.191 56.5877 172.614 56.1663 172.614 55.6465C172.614 55.1267 172.191 54.7053 171.67 54.7053H160.336C154.599 54.7053 149.947 50.0701 149.947 44.3524C149.947 38.6346 154.599 33.9994 160.336 33.9994H182.059V43.4112H160.336Z" fill="white"/>
</g>
<path fill-rule="evenodd" clip-rule="evenodd" d="M61 26.6665C60.1084 26.6665 59.2757 27.1121 58.7812 27.854C58.2866 28.5958 58.1955 29.5358 58.5384 30.3588L63.6666 42.6665H52.8222L50.0196 37.4116C49.5561 36.5426 48.6515 35.9998 47.6666 35.9998H42.3333C40.8605 35.9998 39.6666 37.1937 39.6666 38.6665C39.6666 40.1393 40.8605 41.3332 42.3333 41.3332H46.0666L47.6588 44.3185L43.2617 49.2042C41.7876 48.4348 40.1112 47.9998 38.3333 47.9998C32.4423 47.9998 27.6666 52.7755 27.6666 58.6665C27.6666 64.5575 32.4423 69.3332 38.3333 69.3332C43.3035 69.3332 47.4798 65.9338 48.6639 61.3332H58.2827C58.3179 61.3339 58.3532 61.3339 58.3885 61.3332H62.6693C63.8535 65.9338 68.0297 69.3332 73 69.3332C78.891 69.3332 83.6666 64.5575 83.6666 58.6665C83.6666 52.7755 78.891 47.9998 73 47.9998C72.5391 47.9998 72.0852 48.0291 71.6397 48.0858L70.1426 44.3428L70.1282 44.3075L65 31.9998H67.6666C69.1394 31.9998 70.3333 30.8059 70.3333 29.3332C70.3333 27.8604 69.1394 26.6665 67.6666 26.6665H61ZM66.688 50.0669L65.8612 47.9998H55.6666L59.9333 55.9998H62.6693C63.2908 53.5855 64.7362 51.5019 66.688 50.0669ZM67.7065 55.9998C67.9365 55.5441 68.2237 55.1221 68.5586 54.7433L69.0612 55.9998H67.7065ZM67.7065 61.3332H73C73.8848 61.3332 74.7121 60.8942 75.2081 60.1615C75.7042 59.4288 75.8045 58.4977 75.4759 57.6761L73.5103 52.7623C76.5442 53.0211 78.9259 55.5656 78.9259 58.6665C78.9259 61.9393 76.2728 64.5924 73 64.5924C70.6863 64.5924 68.6824 63.2666 67.7065 61.3332ZM53.8888 55.9998L50.3287 49.3245L47.2252 52.7728C47.8727 53.7478 48.3642 54.8353 48.6639 55.9998H53.8888ZM39.8925 52.9478L36.3512 56.8826C35.6467 57.6654 35.4689 58.7894 35.8973 59.7514C36.3257 60.7134 37.2802 61.3332 38.3333 61.3332H43.6267C42.6509 63.2666 40.6469 64.5924 38.3333 64.5924C35.0605 64.5924 32.4074 61.9393 32.4074 58.6665C32.4074 55.3937 35.0605 52.7406 38.3333 52.7406C38.8729 52.7406 39.3957 52.8127 39.8925 52.9478Z" fill="white" stroke="#CF2D1E" stroke-width="2" stroke-linecap="round" stroke-linejoin="round"/>
<defs>
<clipPath id="clip0_16557_35769">
<rect width="67.7647" height="32" fill="white" transform="translate(115 34)"/>
</clipPath>
</defs>
</svg>
