<svg width="40" height="40" viewBox="0 0 40 40" fill="none" xmlns="http://www.w3.org/2000/svg">
<path fill-rule="evenodd" clip-rule="evenodd" d="M6.40218 21.5271L6.40419 21.5278C6.69201 21.6282 7.00232 21.7356 7.32648 21.8466C7.37558 21.8634 7.42499 21.8803 7.4747 21.8973L7.4769 21.8981C8.2489 22.1617 9.09015 22.4425 9.88813 22.6959C12.3421 23.4749 13.6511 22.6093 13.6511 22.6093C13.8487 22.908 14.0285 23.18 14.1923 23.4277L13.6511 22.6093L25.1853 14.3847C25.4895 14.1658 25.7656 13.9765 26.0158 13.8142C26.0444 13.7956 26.0727 13.7774 26.1007 13.7595C26.2751 13.648 26.4365 13.5499 26.5854 13.4645C26.6085 13.4513 26.6312 13.4383 26.6537 13.4257C27.2627 13.0834 27.6561 12.9594 27.8901 12.9788C28.5547 13.034 27.9333 14.2464 27.312 14.9039C27.0058 15.2281 26.6707 15.5791 26.3127 15.9512L26.3067 15.9574C26.1701 16.0993 26.0302 16.2443 25.8872 16.3919C23.8034 18.5449 21.0797 21.2749 18.7229 23.5613C18.4341 23.8287 18.2409 24.0877 18.1213 24.3345C17.6988 25.2065 18.1947 25.9269 18.641 26.3316C20.3061 27.8226 24.2269 30.5337 26.0084 31.7656C26.5027 32.1074 26.8322 32.3353 26.9033 32.3917C27.312 32.7381 29.6002 34.2963 30.9932 33.95C32.3862 33.6038 32.5499 31.6126 32.5499 31.6126L34.5948 18.0207C34.7751 16.7574 34.9553 15.5204 35.1235 14.3656C35.5663 11.3263 35.9261 8.85667 35.9854 7.97845C36.231 5.03516 33.286 6.24707 33.286 6.24707C31.7638 2.54804 31.7668 2.54679 31.7668 2.54679L31.7699 2.54552L31.7764 2.54288L31.7903 2.53724L31.8219 2.52458C31.8447 2.51555 31.871 2.50532 31.9006 2.49412C31.9595 2.47178 32.0323 2.44519 32.1171 2.41616C32.2846 2.35885 32.5104 2.28815 32.778 2.22167C33.2619 2.10147 34.1129 1.93554 35.0944 2.02586C36.1066 2.11902 37.6383 2.53491 38.7839 3.95898C39.8936 5.33838 40.078 6.9692 39.9744 8.27646C39.8986 9.34275 39.4984 12.0877 39.0435 15.2084C38.8834 16.3066 38.7166 17.4513 38.5547 18.5858L38.5525 18.6008L36.5178 32.1248C36.5145 32.1532 36.5107 32.1838 36.5064 32.2166C36.4901 32.3418 36.4658 32.5021 36.4299 32.6879C36.3604 33.0477 36.2363 33.5622 36.0111 34.1288C35.6194 35.1142 34.5268 37.1935 31.958 37.8319C30.7286 38.1375 29.6051 37.9672 28.866 37.7849C28.0836 37.592 27.3771 37.2953 26.823 37.0245C25.8323 36.5404 24.9332 35.942 24.4244 35.5318C24.4184 35.5302 24.2866 35.4389 23.9671 35.2176C23.8411 35.1303 23.6859 35.0228 23.4977 34.8927C22.8712 34.4592 22.0339 33.8786 21.1367 33.2438C19.4124 32.0237 17.2363 30.4431 15.9727 29.3115L15.9542 29.295C15.4555 28.8428 14.6471 27.9707 14.2286 26.682C13.985 26.755 13.718 26.8216 13.428 26.876C12.1461 27.1167 10.5359 27.0983 8.67775 26.5083C7.39832 26.1021 6.02837 25.6335 4.99051 25.271C4.4688 25.0888 4.0252 24.9314 3.71128 24.8193C3.55423 24.7632 3.42939 24.7183 3.3432 24.6873L3.2077 24.6384L4.57107 20.8779C4.57107 20.8779 5.33043 21.1534 6.40218 21.5271ZM25.0237 9.88306C25.4339 9.6943 26.0581 9.415 26.7833 9.09361C29.3844 7.941 33.286 6.24707 33.286 6.24707L31.7638 2.54804L31.7282 2.56266L31.693 2.57796L30.6629 3.02597C30.0338 3.29984 29.1751 3.67418 28.2571 4.0758C26.4614 4.86141 24.3866 5.77416 23.389 6.23214L4.4234 14.5021C3.32998 14.9547 2.21783 15.574 1.36913 16.5079C0.399845 17.5746 -0.180275 19.028 0.0493909 20.6249C0.247028 21.9991 0.971324 22.9242 1.37042 23.3588C1.59626 23.6047 1.81045 23.7938 1.97426 23.9266C2.05817 23.9946 2.1343 24.0522 2.19929 24.0995C2.23194 24.1232 2.26222 24.1446 2.28976 24.1636L2.32913 24.1905L2.34731 24.2028L2.35602 24.2086L2.36027 24.2114C2.36027 24.2114 2.36446 24.2142 4.57107 20.8779L2.36446 24.2142L2.76042 24.4761L3.2077 24.6384L4.57107 20.8779C4.57107 20.8779 2.81411 19.7158 5.46363 18.4179C5.61491 18.3438 5.78056 18.2692 5.96172 18.1944L25.0237 9.88306Z" fill="white"/>
</svg>
